<?xml version="1.0" standalone="no"?>
<!DOCTYPE svg PUBLIC "-//W3C//DTD SVG 1.1//EN" "http://www.w3.org/Graphics/SVG/1.1/DTD/svg11.dtd" >
<svg xmlns="http://www.w3.org/2000/svg" xmlns:xlink="http://www.w3.org/1999/xlink" version="1.1">
<metadata></metadata>
<defs>
<font id="delicatedelicate" horiz-adv-x="1705" >
<font-face units-per-em="2048" ascent="1536" descent="-512" />
<missing-glyph horiz-adv-x="921" />
<glyph horiz-adv-x="0" />
<glyph unicode="&#xd;" horiz-adv-x="921" />
<glyph horiz-adv-x="0" />
<glyph horiz-adv-x="0" />
<glyph unicode=" "  horiz-adv-x="921" />
<glyph unicode="&#x09;" horiz-adv-x="921" />
<glyph unicode="&#xa0;" horiz-adv-x="921" />
<glyph unicode="!" d="M-14 1548h256q-14 -35 -16.5 -68.5t-2.5 -49.5v-760q0 -66 3 -107t7 -67h-241q4 18 6 53t2 100v752q0 59 -4 93t-10 54zM0 0v199q33 -55 74 -106.5t94 -92.5h-168zM57 264h166v-201q-31 55 -71.5 107.5t-94.5 93.5z" />
<glyph unicode="#" horiz-adv-x="2134" d="M111 918q0 27 14 51q8 18 27 32q37 31 94 25q18 0 37 -6q4 0 4 -6v-2q0 -4 -4 -4q-16 -6 -27 -23q-8 -16 -8 -24q0 -10 2 -19.5t8 -19.5q18 -29 16 -52q-4 -29 -10 -36q-14 -31 -71 -25q-39 2 -64 33q-25 35 -18 76zM184 684l29 -70l20 -55l41 -106q16 70 48 126t73 103 l2 2h-213zM516 0q27 45 49 106l539 1434q10 -31 18 -54.5t17 -39.5l61 -160l-41 -115l-352 -1032q-12 -35 -18.5 -56.5t-9.5 -34.5t-4 -20.5t-1 -13.5q0 -4 2 -8t2 -6h-262zM913 6q-4 2 0 6q12 23 24.5 49.5t23.5 55.5q25 66 49 128t47 126q88 227 160.5 420.5t129 344 t93.5 252t53 146.5q4 4 6 4q4 0 8 -4q10 -29 18.5 -52.5t16.5 -39.5l60 -162q2 -4 0 -6l-41 -109q-20 -63 -31 -90q-10 -27 -26.5 -72t-36 -101t-42 -120.5t-45.5 -130.5l-18 -53q-16 -41 -19 -49l-30 -92v-2q-18 -55 -30.5 -93t-18.5 -63l-50 -156q-12 -35 -18 -56 t-9 -34.5t-4 -19.5t-1 -10q0 -2 1 -4.5t1 -4.5l2 -4q0 -4 -2 -6t-6 -2h-258q-6 0 -7 4zM1716 1014h213l-26 71l-23 56l-41 104q-16 -68 -48 -125t-71 -104zM1833 684v2q0 4 4 4q16 6 27 23q4 8 8 24q0 10 -2 19.5t-10 19.5q-16 31 -15 51q0 20 8 37q18 31 74 25 q39 -2 64 -33q20 -31 18 -76q-4 -31 -14 -53q-4 -8 -11.5 -15t-15.5 -16q-37 -31 -94 -24q-23 0 -37 6q-4 0 -4 6z" />
<glyph unicode="&#x26;" horiz-adv-x="1820" d="M115 375q0 152 88 252q63 74 196 141q-53 -111 -53 -274q0 -221 137 -381q98 -111 222 -144q-16 -2 -32 -2h-32q-242 0 -385 117q-141 109 -141 291zM346 1247q0 129 98 213q55 45 119 66q-16 -29 -27.5 -70t-11.5 -94q0 -109 64 -217l893 -1145h-260l-807 1038 q-68 86 -68 209zM883 1522q53 -18 96 -52q92 -72 92 -178q0 -159 -186 -239q45 90 45 215q0 164 -47 254zM1126 901h295l-82 -235q-6 29 -15 60.5t-32.5 62t-62.5 59.5t-103 53z" />
<glyph unicode="'" horiz-adv-x="966" d="M217 1354q0 25 23 57q18 20 18 45q0 43 -37 60q-4 2 -4 8q0 2 6 6q10 2 21.5 3t21.5 1q63 0 109 -41q39 -37 39 -98q0 -57 -31 -88q-27 -33 -76 -33q-55 0 -72.5 22.5t-17.5 57.5z" />
<glyph unicode="(" horiz-adv-x="681" d="M-4 698q0 365 256 564q37 29 81 52t93 42q-10 -12 -19.5 -25.5t-19.5 -27.5q-63 -100 -95 -249t-32 -358q0 -268 53.5 -435t135.5 -261l-9 4q-219 84 -334 270q-111 174 -110 424z" />
<glyph unicode=")" horiz-adv-x="937" d="M199 -2q84 94 136 261t52 435q0 209 -30.5 357.5t-94.5 248.5q-10 14 -20.5 27.5t-20.5 26.5q102 -37 174 -94q256 -199 256 -564q0 -250 -110 -424q-111 -184 -334 -270q-2 -2 -4 -2t-4 -2z" />
<glyph unicode="," d="M35 -520q0 4 4 4q4 2 11 2h13q41 0 62 -23q25 -23 25 -57q0 -33 -19 -51q-18 -18 -43 -19q-33 0 -43 12.5t-10 35.5q0 16 14 32q8 10 8 25q0 25 -18 35q-4 0 -4 4z" />
<glyph unicode="." />
<glyph unicode="0" horiz-adv-x="1421" d="M143 756q0 426 267 655q80 72 188 100q-23 -23 -43 -56.5t-37 -86.5q-55 -188 -55 -549q0 -575 108 -756q20 -34 47 -61q-166 39 -299 209q-176 225 -176 545zM850 1513q92 -23 162 -75q127 -100 200 -283q78 -190 78 -410q0 -332 -162 -546q-118 -156 -276 -195 q23 23 43 59.5t33 90.5q45 180 45 632q0 260 -19.5 424t-58.5 244q-18 35 -45 59z" />
<glyph unicode="1" horiz-adv-x="569" d="M98 1372q90 18 162 41q31 10 60.5 22.5t54 28t40 32.5t17.5 38v-1440q4 -66 35 -96h-344l4 4l4 2v4q20 29 21 84v909v168t-1 92.5t-2.5 39t-1.5 12.5q-4 14 -13 31.5t-36 27.5z" />
<glyph unicode="2" horiz-adv-x="1392" d="M195 2q4 2 10 8q154 119 284 242q-2 -8 -2 -16q0 -16 11 -17h295q131 2 198.5 2t108.5 6q113 8 160 60h2q8 12 12 20v-307zM287 1159q0 72 18 127q10 -49 60 -65h2q4 -2 18 -3t53 -6q59 -2 94 -41q35 -41 35 -98q0 -59 -32 -94q-31 -35 -84 -35q-72 0 -117 55 q-47 59 -47 160zM614 1528q31 4 63 7t66 3q223 0 363 -123q137 -119 137 -311q0 -358 -625 -727l55.5 55.5t51.5 54.5q211 233 211 580q0 234 -117 367q-80 86 -205 94z" />
<glyph unicode="3" horiz-adv-x="1222" d="M109 242q0 72 43 114q43 43 112 43q66 0 95.5 -25.5t29.5 -84.5q0 -14 -4 -30.5t-17.5 -33t-39 -32t-68.5 -27.5q-8 -2 -21.5 -7t-26.5 -13.5t-22.5 -21.5t-9.5 -32v-10q-72 59 -71 160zM135 1229q0 70 31 129q2 -14 14.5 -31.5t46.5 -21.5q51 -10 81 -24.5t45.5 -31 t20.5 -34t5 -31.5q0 -47 -29 -76q-27 -27 -74 -27q-68 0 -104 37q-37 39 -37 111zM430 1522q29 4 58.5 7t62.5 3q221 0 354 -92q127 -90 127 -228q0 -109 -96 -198q-102 -92 -270 -129q-8 -2 -20.5 -4t-24.5 -4q-15 -3 -31 -5q35 29 63 74q72 109 72 246q0 147 -88 238 q-82 82 -207 92zM565 -4q88 31 152 106q106 129 106 349q0 219 -133 317q-23 16 -53 31h12q6 0 13.5 1t13.5 1q162 -4 291 -80q160 -98 159 -270q0 -193 -176 -324q-156 -115 -385 -131z" />
<glyph unicode="4" horiz-adv-x="1452" d="M94 387l105 129q2 -12 3 -27.5t9 -32t27.5 -35t56.5 -34.5h-105h-40h-56zM764 0l4 2t7 13.5t7 33t4 62.5v80.5t1 144.5t1 184.5v202.5v528q23 27 46.5 54.5t48.5 56.5l2 2v2q2 2 9 11t21.5 25.5t38 45.5t58.5 72q10 10 16 17t10 13l-2 -1441q0 -29 5.5 -59t23.5 -50 q-104 0 -171 1t-130 -1zM1178 387q39 27 70.5 58.5t60.5 66.5v-248q-29 35 -60.5 66.5t-70.5 56.5z" />
<glyph unicode="5" horiz-adv-x="1280" d="M145 258q0 70 43 113q45 41 115 41q59 0 86 -26t27 -83q0 -6 -2 -20.5t-13.5 -30.5t-35 -34.5t-68.5 -33.5q-10 -4 -23.5 -9t-28 -13t-23.5 -21.5t-9 -31.5v-15q-68 63 -68 164zM289 1288l18 219h649q18 0 34 2t26 13q-2 -102 -23 -170q-8 -29 -20.5 -39.5t-22.5 -14.5 t-31.5 -7t-64.5 -3h-565zM539 920q23 2 42 3t42 1q241 0 378 -119t138 -313q0 -217 -164 -355q-147 -123 -357 -137q68 33 121 113q90 137 90 362q0 205 -84 324q-74 109 -206 121z" />
<glyph unicode="6" horiz-adv-x="1366" d="M154 641q0 123 27.5 236.5t84.5 216.5q113 205 322 329q68 41 144.5 68t162.5 43v-2q-127 -55 -209 -143q-193 -205 -229 -504l-13 -101q-10 -135 -2 -266q2 -55 9.5 -115.5t19.5 -120t30.5 -114.5t45.5 -100q20 -37 43 -60q-164 37 -277 162q-160 178 -159 471zM698 952 q41 10 76 11q199 0 330 -132q131 -129 131 -321q0 -250 -188 -408q-93 -79 -224 -102q35 33 56 78q43 104 43 323q0 285 -54 410q-31 78 -79 107.5t-91 33.5z" />
<glyph unicode="7" horiz-adv-x="1308" d="M160 1243q4 20 7 43t7 51q4 29 9 70t14 96v10h987q-8 -12 -21.5 -33.5t-36.5 -52.5q-25 -35 -48 -68.5t-46 -66.5h-725h-10q-96 0 -135 -47q0 -2 -2 -2zM465 217q0 195 205 506l71 104q-76 -160 -75 -327q0 -86 36 -258q12 -61 13 -103q0 -61 -33 -100t-74 -39 q-61 0 -100 57q-43 61 -43 160z" />
<glyph unicode="8" horiz-adv-x="1337" d="M152 393q0 203 157 299q76 45 226 86l28 8q-29 -27 -51 -67q-53 -106 -53 -326q0 -217 61 -321q23 -41 64 -68q-160 20 -277 107q-156 113 -155 282zM223 1176q0 156 125 256q100 80 246 98q-92 -84 -92 -348q0 -238 82 -330q-10 0 -19 2q-8 2 -16 2t-19 4 q-307 80 -307 316zM801 1528q144 -18 246 -98q125 -100 124 -256q0 -238 -309 -316q-10 -4 -18 -5t-17 -3q-8 -2 -16 -2q82 94 82 330q0 264 -92 350zM811 0q40 31 63 70q61 104 62 321q0 219 -53 326q-10 20 -23.5 36.5t-30.5 28.5l31 -6q150 -41 225 -86q158 -96 158 -299 q0 -172 -156 -285q-113 -82 -276 -106z" />
<glyph unicode="9" horiz-adv-x="1308" d="M94 1022q0 248 189 410q94 77 223 100q-35 -33 -55 -78q-43 -102 -43 -324q0 -279 53 -409q33 -78 80 -107.5t92 -33.5q-20 -4 -39 -7.5t-39 -3.5q-199 0 -330 131q-131 129 -131 322zM434 0q63 29 115.5 63.5t93.5 79.5q193 205 229 504l13 101q10 135 2 266 q-6 113 -29 235.5t-76 214.5q-10 16 -19 31.5t-24 28.5q164 -37 277 -162q160 -178 160 -471q0 -123 -28 -236.5t-85 -216.5q-113 -205 -322 -329q-137 -82 -307 -109z" />
<glyph unicode="?" d="M393 1550h211l-2 -2q-39 -47 -70.5 -104.5t-48.5 -124.5l-41 104l-22 56zM479 188q4 14 7 28.5t12 29.5q33 61 112 90q14 4 27.5 7t28.5 7l4 -2q2 -2 4 -2l2 -4v-4q0 -2 -2 -4q-23 -23 -25 -49q-2 -16 4 -37q10 -29 37 -47q43 -27 51 -60q10 -29 11 -55q-6 -51 -86 -76 q-55 -23 -105 6q-47 27 -72 93q-12 45 -10 79zM479 401v5l209 90q0 2 3 4t5 6q2 6 3 12t3.5 20.5t4.5 38t4 60.5l22 342q29 14 52.5 42t43 64.5t34 79.5t24.5 86q25 98 39 219l-4 -757q-4 -70 6 -117v-2z" />
<glyph unicode="A" horiz-adv-x="1452" d="M88 0h88h66h129q-66 47 -113 104.5t-82 118.5v2zM590 1288l61 168q6 16 15.5 41t19.5 53q18 -55 58 -163.5t97.5 -261t130 -345t158.5 -413.5q25 -66 49.5 -130.5t47.5 -130.5q12 -31 25.5 -58.5t25.5 -47.5h-264q0 2 2 6t2 8q-2 10 -6 33t-27 94l-51 158 q-8 23 -20.5 61.5t-30.5 96.5l-31 96q-4 6 -18 49q-25 72 -50.5 145.5t-49 140t-42 120t-30.5 82.5q-4 14 -12.5 36.5t-18.5 53.5z" />
<glyph unicode="B" horiz-adv-x="1366" d="M160 0q6 20 8 46t2 60v1399q0 8 -1 18.5t-5 24.5h237q-8 -25 -8 -57v-825v-605v-22q0 -19 4 -39h-237zM844 1530q94 -18 150.5 -51t86 -74t38.5 -86t9 -86q0 -37 -8 -80t-36.5 -84t-83 -77.5t-146.5 -63.5q57 100 57 293q0 111 -18.5 186.5t-48.5 122.5zM866 29 q41 55 66.5 141t25.5 213q0 221 -77 342q82 -23 126 -45.5t66 -40.5q129 -109 129 -266q0 -125 -76 -213q-74 -88 -217 -123q-10 -2 -21.5 -4t-21.5 -4z" />
<glyph unicode="C" horiz-adv-x="1564" d="M170 772q0 344 213 576q129 139 301 194q-51 -53 -86 -118.5t-57 -131.5q-41 -117 -61.5 -255t-20.5 -298q0 -487 205 -719q4 -4 6 -7t6 -7q-72 29 -139.5 72t-128.5 104q-238 236 -238 590zM1196 0q66 47 114 105.5t83 117.5v-223h-197zM1210 1548h164v-196 q-31 55 -70.5 105t-93.5 91z" />
<glyph unicode="D" horiz-adv-x="1421" d="M-12 1550h256q-14 -35 -16.5 -68.5t-2.5 -49.5v-1258q0 -66 3 -106.5t10 -67.5h-244q4 18 6 54t2 102v1247q0 59 -4 93t-10 54zM834 57q88 98 143 273.5t55 455.5q0 428 -133 633q-16 27 -41 56q106 -38 182 -99q268 -207 269 -590q0 -258 -117 -442q-119 -195 -348 -283 q-4 -2 -5 -2t-5 -2z" />
<glyph unicode="E" horiz-adv-x="1222" d="M98 1550h256q-14 -35 -16 -68.5t-2 -49.5v-1258q0 -66 3 -106.5t9 -67.5h-244q4 18 6.5 54t2.5 102v1247q0 59 -4.5 93t-10.5 54zM727 776q53 37 92 90v-178q-39 55 -92 88zM887 2q66 47 114 104.5t82 118.5v-223h-196zM901 1550h166v-196q-31 53 -72 104t-94 92z" />
<glyph unicode="F" horiz-adv-x="1136" d="M156 1550h256q-14 -35 -16.5 -68.5t-2.5 -49.5v-1258q0 -66 3 -106.5t10 -67.5h-244q4 18 6 54t2 102v1247q0 59 -4 93t-10 54zM784 776q53 37 93 90v-178q-40 55 -93 88zM958 1550h166v-196q-31 53 -71.5 104t-94.5 92z" />
<glyph unicode="G" horiz-adv-x="1394" d="M4 737q0 186 55 333.5t168 270.5t254 181q-186 -219 -186 -752q0 -547 170 -768q0 -2 1 -2t1 -2q-135 55 -246 172t-164 255t-53 312zM1034 0q14 35 22.5 78t8.5 98q0 86 -3 133t-9 76h202q0 -2 -1 -3t-1 -3q0 -6 -1 -18.5t-2 -35t-2 -59.5t-1 -94v-61 q-106 -70 -213 -111zM1087 1548h168v-200q-33 55 -73.5 107t-94.5 93z" />
<glyph unicode="H" horiz-adv-x="1449" d="M129 1550h256q-14 -35 -16 -68.5t-2 -49.5v-1258q0 -66 3 -106.5t7 -67.5h-242q4 18 6 54t2 102v1247q0 59 -4 93t-10 54zM643 774q29 18 50.5 41t41.5 47v2v-2v2v-2q39 -53 92 -88q-29 -16 -51 -38.5t-41 -47.5v-2v2q-20 25 -41.5 47.5t-50.5 38.5zM1083 1550h258 q-16 -35 -18 -68.5t-2 -49.5v-1258q0 -66 3 -106.5t9 -67.5h-241q4 18 5 54t1 102v1247q0 59 -3 93t-12 54z" />
<glyph unicode="I" horiz-adv-x="540" d="M100 1534h254q-14 -35 -16 -67.5t-2 -49.5v-1245q0 -66 3 -106.5t9 -65.5h-242q4 18 6.5 52t2.5 100v1237q0 57 -4.5 90.5t-10.5 54.5z" />
<glyph unicode="J" horiz-adv-x="684" d="M0 -78q0 41 25 66q24 24 63 24q33 0 51 -20q20 -18 21 -49q0 -35 -35 -82q-10 -16 -17.5 -29.5t-9.5 -30.5q-31 8 -57 29q-41 35 -41 92zM369 -143q8 37 12 84v82q0 33 2 69v33v1221v53q0 53 -4 86t-10 51h239q-14 -31 -16 -62.5t-2 -48.5l2 -1042q0 -154 -6 -224.5 t-13 -92.5q-25 -92 -174 -195q-6 -4 -15 -7t-15 -7z" />
<glyph unicode="K" horiz-adv-x="1849" d="M268 1546h256q-16 -33 -18 -66.5t-2 -49.5v-1256q0 -66 3 -106.5t9 -67.5h-242q4 18 6.5 54t2.5 102v1243q0 59 -4.5 93t-10.5 54zM643 786l44 44t75 79q29 -37 82 -107.5t137 -178.5q70 -86 166 -209t219 -283q33 -45 56.5 -74.5t41.5 -52.5h-37q-27 2 -49 2h-43h-34.5 t-26.5 -2h-86q0 10 -3 20.5t-17.5 33t-44 65.5t-83.5 119l-360 506l-4 4q-27 27 -33 34zM1042 1550h361v-2l-164 -164q-41 53 -91 94.5t-106 71.5z" />
<glyph unicode="L" horiz-adv-x="1280" d="M158 1546h256q-14 -35 -16.5 -68.5t-2.5 -50.5v-1253q0 -66 2 -106.5t9 -67.5h-242q4 18 6 53t2 101v1245q0 59 -4 93t-10 54zM989 0q53 41 93 91t71 106v-197h-164z" />
<glyph unicode="M" horiz-adv-x="1679" d="M84 0v197q31 -53 71 -104.5t93 -92.5h-164zM84 1550h164h184q-2 -4 -2 -14q0 -6 1 -11t5 -18.5t13.5 -41.5t27.5 -79q94 -281 177 -510t155 -409l61 -154q-25 -74 -51 -151.5t-55 -161.5q-6 14 -16.5 43t-22.5 61.5t-23.5 62.5t-17.5 46q-37 100 -87 231t-112 297 q-29 72 -69.5 179.5t-98.5 248.5q-16 45 -34.5 91.5t-34.5 95.5q-31 53 -71 103t-93 91zM1255 1550h256q-16 -35 -18 -68.5t-2 -49.5v-1258q0 -66 3 -106.5t9 -67.5h-241q4 18 6 54t2 102v1247q0 59 -4 93t-11 54z" />
<glyph unicode="N" horiz-adv-x="1452" d="M113 0h166q-53 41 -94.5 92t-71.5 105v-197zM113 1548h276l891 -1214v-336zM1114 1548q53 -41 94 -92t72 -104v196h-166z" />
<glyph unicode="O" horiz-adv-x="1708" d="M141 780q0 340 211 570q104 113 230 168q-14 -20 -26.5 -43t-25.5 -48q-104 -227 -104 -600q0 -526 178 -798q-133 53 -250 182q-213 233 -213 569zM1153 1518q119 -57 217 -168q203 -227 203 -572q0 -342 -209 -571q-45 -47 -91 -85t-99 -67q2 4 4 8.5t4 8.5 q108 252 108 660v7q0 256 -30.5 440.5t-92.5 309.5l-7 14t-7 15z" />
<glyph unicode="P" horiz-adv-x="1138" d="M72 1544h256q-14 -33 -16.5 -66.5t-2.5 -50.5v-1253q0 -66 3 -106.5t10 -67.5h-242q4 18 5 53t1 101v1245q0 59 -3 92t-11 53zM711 848q106 119 106 366q0 115 -20.5 193t-53.5 127q109 -14 175 -55q145 -90 145 -250q0 -176 -129 -283q-88 -74 -223 -98z" />
<glyph unicode="Q" horiz-adv-x="1679" d="M143 758q0 354 205 592q51 55 105.5 98t113.5 72q-8 -16 -12 -27q-127 -254 -127 -813q0 -414 109 -629q-393 207 -394 707zM743 -131q55 -18 121 -19q29 0 55.5 4.5t49.5 10.5q0 -92 2 -130t6 -54q10 -59 38.5 -92t74.5 -68q4 -4 6 -5t6 -5q-53 0 -104.5 1t-92.5 21 q-162 82 -162 305v31zM1141 1520q121 -59 219 -170q205 -238 205 -592q0 -500 -394 -707q109 215 109 629q0 559 -127 813q-4 10 -12 27z" />
<glyph unicode="R" horiz-adv-x="1253" d="M127 1542h256q-14 -33 -16 -66.5t-2 -50.5v-1251q0 -66 3 -106.5t7 -67.5h-242q4 18 6 53t2 101v1243q0 59 -4 93t-10 52zM743 723q133 -27 207 -100q100 -105 123 -355q14 -141 32.5 -206.5t35.5 -94.5q-121 25 -205 111q-88 94 -100 194l-25 201q-18 162 -68 250z M803 934q74 117 74 321q0 96 -19.5 163t-52.5 110q51 -6 83 -14.5t50 -16.5q76 -33 125 -102q45 -66 45 -146q0 -98 -48.5 -165.5t-152.5 -114.5q-23 -10 -48 -18.5t-56 -16.5z" />
<glyph unicode="S" horiz-adv-x="1196" d="M115 0v197q31 -55 70.5 -105.5t93.5 -91.5h-164zM205 1417q-4 -16 -6 -34.5t-2 -36.5q0 -131 98 -230q41 -41 116.5 -93t190.5 -116q158 -88 231.5 -140t100.5 -81q104 -111 104 -276q0 -190 -135 -314q-20 -20 -41 -35q43 76 43 170q0 131 -78 215q-10 8 -26.5 22.5 t-50 36t-88 52.5t-136.5 76q-252 131 -336 260q-75 108 -75 262q0 158 90 262zM874 1540h164v-194q-31 53 -71.5 103t-92.5 91z" />
<glyph unicode="T" horiz-adv-x="1394" d="M57 1386v166h197q-53 -31 -104.5 -71.5t-92.5 -94.5zM553 1554h258q-16 -33 -18 -67.5t-2 -50.5v-1260q0 -66 3 -107.5t9 -68.5h-244q4 18 6 54t2 102v1251q0 59 -4 93t-10 54zM1110 1552h197v-166q-41 53 -92.5 94.5t-104.5 71.5z" />
<glyph unicode="U" horiz-adv-x="1107" d="M-14 1554h258q-14 -35 -16.5 -68.5t-2.5 -49.5l-2 -240v-584q0 -68 1 -113.5t2 -75.5t3 -47.5t2 -25.5q23 -186 113 -274q47 -47 111 -76q-229 8 -355 150q-100 109 -100 413v606v166q0 29 -1 64t-2 65.5t-4 55t-7 34.5zM807 1552h166v-196q-31 55 -72 105t-94 91z" />
<glyph unicode="V" horiz-adv-x="1253" d="M33 1554h254v-14q0 -6 1 -10t5 -18.5t13 -42t26 -78.5q94 -281 178 -511.5t156 -410.5l61 -156q-25 -74 -51 -151.5t-55 -161.5q-4 14 -15.5 43t-24 61.5t-23.5 62.5t-17 46q-37 100 -87.5 232.5t-113.5 295.5q-27 72 -69 180.5t-97 252.5q-31 78 -61.5 159.5 t-61.5 175.5q-6 23 -18 45zM991 1554q35 -29 65.5 -61.5t57.5 -67.5l43 129h-166z" />
<glyph unicode="W" horiz-adv-x="1820" d="M0 1554h254v-14q0 -6 1 -10t5 -18.5t13.5 -42t25.5 -78.5q94 -281 178 -511.5t156 -410.5l61 -156q-27 -74 -52 -151.5t-54 -161.5q-6 14 -17.5 43t-23.5 61.5t-23.5 62.5t-17.5 46q-35 100 -85 232.5t-114 295.5q-27 72 -68.5 180.5t-99.5 252.5q-29 78 -59.5 159.5 t-61.5 175.5q-4 12 -9 23.5t-9 21.5zM715 1554h256q-2 -4 -2 -14q0 -6 1 -10t5 -18.5t13 -42t28 -78.5q94 -281 177 -511.5t155 -410.5l61 -156l-104 -313q-6 14 -17.5 43t-24 61.5t-23.5 62.5t-17 46q-37 100 -87.5 232.5t-111.5 295.5q-29 72 -70 180.5t-98 252.5 q-31 78 -61.5 159.5t-59.5 175.5q-10 27 -20 45zM1665 1552q74 -57 121 -129l45 129h-166z" />
<glyph unicode="X" horiz-adv-x="1423" d="M182 0h264q-35 25 -55 41t-36.5 32.5t-31 35t-34.5 47.5zM207 1542h301q-25 -16 -14 -31l634 -1173q41 -78 73 -134.5t57.5 -96t44 -65.5t32.5 -42h-299v12v15.5t-4 21.5q-6 25 -23.5 66t-53 111.5t-94 176t-148.5 259.5l-160 284q-51 90 -92 162t-72 127l-102 178 q-23 41 -43.5 74t-36.5 55zM1098 1542q33 -25 54.5 -41t36.5 -32.5t29.5 -35t34.5 -47.5l109 156h-264z" />
<glyph unicode="Y" horiz-adv-x="1138" d="M0 1554h285q-2 -6 -2 -13v-13q0 -29 5 -50.5t17 -50.5q10 -23 39 -82t78 -161q43 -88 95 -188.5t112 -217.5l33 -63v-277v-262q0 -66 3 -107.5t9 -68.5h-248q4 18 6 54t2 102v196v324l-4 12q-35 96 -96.5 225t-147.5 289q-35 72 -81 159t-105 193zM903 1554 q53 -41 94 -92t72 -104v196h-166z" />
<glyph unicode="Z" horiz-adv-x="1478" d="M141 -2v336l893 1218h279zM141 1356v196h166q-53 -41 -93 -92t-73 -104zM1147 0q53 41 93 92t71 107v-199h-164z" />
<glyph unicode="a" horiz-adv-x="1052" d="M145 182q0 195 261 275q-70 -82 -70 -209q0 -57 11 -97t28.5 -66t40 -39t45.5 -19q-61 -33 -129 -33q-43 0 -76 13t-59 38q-51 51 -52 137zM201 901q0 -10 5 -22.5t16 -23.5t31.5 -19.5t53.5 -10.5q18 -2 30.5 -11t12.5 -46q0 -35 -22 -53q-19 -23 -56 -23q-51 0 -82 31 q-28 26 -28 69q0 58 39 109zM621 1016q135 -14 198 -72q66 -59 66 -229v-424q0 -84 1 -112t1 -38q6 -51 21.5 -80.5t35.5 -46.5q-47 -12 -100 -12q-78 0 -111 29q-10 10 -26.5 38.5t-24.5 86.5v243v205q0 82 -2 138.5t-5 92t-6 56t-7 31.5l-3 12v2q-6 20 -15 40.5t-23 39.5z " />
<glyph unicode="b" horiz-adv-x="1337" d="M217 1602q66 6 128.5 15t121.5 23v-876v-270v-154q0 -250 35 -334l4 -4h-270v29v1474q0 59 -19 97zM836 1012q167 -12 276 -133q125 -137 125 -357q0 -289 -227 -446q-31 -20 -61.5 -36.5t-63.5 -29.5q8 10 14 22.5t12 24.5q57 139 58 457q0 39 -2 107.5t-14.5 141.5 t-40 140.5t-76.5 108.5z" />
<glyph unicode="c" horiz-adv-x="1024" d="M115 498q0 227 151 385q96 96 217 133q-96 -139 -96 -463q0 -158 28 -267.5t83 -181.5q68 -82 155 -106q-12 0 -24.5 -1t-24.5 -1q-201 0 -346 145q-143 145 -143 357zM813 801q0 8 2 21.5t10 33.5q23 53 23 86q0 25 -10 55q12 -6 24.5 -13t22.5 -13q92 -66 92 -152 q0 -39 -23 -65q-20 -23 -55 -23q-59 0 -72.5 20.5t-13.5 49.5z" />
<glyph unicode="d" horiz-adv-x="1280" d="M145 526q0 220 125 359q115 125 281 133q-51 -41 -79 -108.5t-40 -141.5t-14 -142.5t-2 -109.5q0 -326 59 -459q4 -14 11.5 -26.5l13.5 -22.5q-61 25 -125 68q-229 160 -230 450zM885 1614q68 6 130 15t122 24v-883v-274v-156q0 -252 34 -336l5 -4h-273v29v1489 q0 59 -18 96z" />
<glyph unicode="e" horiz-adv-x="1165" d="M150 516q0 223 143 373q94 96 209 129q-25 -35 -43 -103q-16 -57 -28.5 -152.5t-12.5 -242.5q0 -315 139 -450q51 -53 117 -74q-231 2 -377 145q-147 147 -147 375zM811 1014q0 -2 1 -3t1 -3q33 -80 33 -275h198q-2 12 -5 25.5t-5 23.5q-35 127 -139 193q-39 25 -84 39z " />
<glyph unicode="f" horiz-adv-x="796" d="M129 2l4 4q18 47 26.5 129t8.5 211v156v276l-2 328q0 72 13.5 142.5t37.5 137.5q51 135 127 203q57 53 135 82q-39 -55 -55 -131q-10 -39 -13 -101.5t-3 -154.5l-5 -1253v-29h-274zM551 719q29 18 52.5 40.5t43.5 49.5v-182q-20 27 -43.5 49.5t-52.5 42.5zM698 1485 q0 8 6.5 31.5t34.5 70.5q20 27 21 66q0 4 -1 8t-1 8q39 -16 65 -35q68 -49 68 -135q0 -45 -27 -72q-26 -26 -69 -26q-45 0 -72 24q-25 25 -25 60z" />
<glyph unicode="g" horiz-adv-x="1363" d="M-4 -380.5q6 26.5 27.5 53t62.5 49t111 38.5q-35 -80 -35 -170q0 -72 27.5 -143.5t105.5 -120.5q-59 8 -108.5 24.5t-88.5 39.5q-108 65 -108 176q0 27 6 53.5zM115 53q0 31 9 67t38 70q2 -18 9 -41.5t28.5 -45t60.5 -37t102 -15.5q59 0 142.5 8.5t195.5 24.5q49 6 95 6 q150 0 231 -72q78 -70 78 -204q0 -90 -27 -162q2 4 2 12q0 35 -9 78t-39 80t-85 62.5t-147 25.5q-55 0 -128 -7t-163 -22q-61 -10 -106 -15t-74 -5q-16 0 -35 6q-10 4 -23 8q-53 20 -83.5 44t-46 47.5t-20.5 46t-5 40.5zM121 676q0 145 131 250q66 53 154 82 q-63 -109 -64 -312q0 -225 53 -331q2 -4 4 -9.5t4 -9.5q-4 4 -10 4l-65 33q-207 106 -207 293zM758 1012q110 -31 178 -103q14 -14 24.5 -26.5t16.5 -22.5q8 -12 12 -22q43 -84 43 -154q0 -166 -155 -278q-20 -16 -43 -27.5t-46 -22.5q39 90 39 303q0 244 -69 353z M1178 1022q10 4 21 4h24q67 0 106 -39t39 -96q0 -55 -31 -86q-29 -31 -73 -31q-53 0 -68.5 19.5t-15.5 54.5q0 27 22 55q18 25 19 51q0 20 -10.5 39t-32.5 29z" />
<glyph unicode="h" horiz-adv-x="1193" d="M123 1585q66 4 127 14.5t119 24.5v-866v-269v-151q0 -125 9 -205t25 -125l5 -4h-267v29v1456q0 59 -18 96zM682 999q12 2 26.5 3.5t30.5 1.5q207 0 258 -162q6 -23 12.5 -66t6.5 -129v-567q0 -16 2 -36.5t8 -39.5h-240q0 4 1 14.5t2.5 36t2.5 73.5t1 128v371 q0 80 -2.5 132t-6.5 86t-9 51t-9 28q-10 20 -29.5 41.5t-54.5 33.5z" />
<glyph unicode="i" horiz-adv-x="540" d="M123 1016q72 6 138.5 16t125.5 25v-250v-287v-164q0 -260 39 -350l2 -6h-285v31v882q0 68 -20 103zM141 1415q0 49 35 82q37 33 94 33q51 0 84 -33q31 -31 31 -80q0 -53 -35 -88q-37 -37 -86 -37t-88 35q-16 18 -25.5 38.5t-9.5 49.5z" />
<glyph unicode="j" horiz-adv-x="483" d="M-285 -453q0 55 29 84q27 31 72 31q53 0 68.5 -19.5t15.5 -54.5q0 -25 -23 -53q-18 -25 -18 -51q0 -20 9 -37.5t32 -28.5q-10 -4 -20.5 -4h-22.5q-66 0 -103 37q-39 39 -39 96zM90 -530q14 41 18.5 84t6.5 69v2v1141v174q0 61 -19 96q68 6 130.5 15.5t119.5 25.5v-239 v-90v-351q0 -391 -6 -491q-6 -96 -43 -191q-47 -129 -162 -215q-10 -8 -22.5 -15t-22.5 -15zM127 1427q0 47 31 76q31 31 86 31q45 0 73 -29q29 -29 29 -78q0 -51 -31 -81q-30 -31 -79 -31t-78 31q-31 31 -31 81z" />
<glyph unicode="k" horiz-adv-x="1306" d="M123 1618q68 6 130 16.5t122 24.5v-887v-274v-156q0 -129 9 -210t26 -126l4 -4h-273v29v1491q0 61 -18 96zM487 547q47 43 117 125l33 37l285 -430q10 -18 28.5 -46t44.5 -69q4 -4 10.5 -15.5t26.5 -39.5l43 -64l23 -31l12 -18h-315q2 6 2 12t-2 16.5t-12.5 34t-34 65.5 t-66.5 112q-16 23 -38.5 58.5t-51.5 82.5q-16 33 -43 75t-62 95zM698 1174h205h170l-2 -3l-168 -167q-41 53 -94 95t-111 75z" />
<glyph unicode="l" horiz-adv-x="512" d="M88 1622q70 6 132.5 15.5t121.5 25.5v-889v-276v-156q0 -129 9 -210t28 -128l2 -4h-272v29v1497q0 61 -21 96z" />
<glyph unicode="m" horiz-adv-x="1792" d="M68 918v2q121 23 235 77v-4v-297v-575q0 -43 5 -72t9 -47h-243q6 18 9 38.5t3 53.5v418q0 135 -1 213t-3 117t-5 50t-5 17zM610 1014q39 8 92 8q139 0 203 -72.5t64 -228.5v-625q0 -43 1 -61.5t5 -32.5h-240q2 10 2 25v555q0 90 -2 149.5t-5 96t-6 56t-7 29.5 q-8 25 -31.5 54.5t-75.5 46.5zM1264 1014q39 8 92 8q139 0 202.5 -72.5t63.5 -228.5v-625q0 -43 1 -61.5t5 -32.5h-239q2 10 2 25v555q0 90 -2.5 149.5t-5.5 96t-6 56t-7 29.5q-8 25 -31.5 54.5t-74.5 46.5z" />
<glyph unicode="n" horiz-adv-x="1107" d="M66 915v3q121 23 235 77v-4v-297v-575q0 -43 5 -72t9 -47h-243q6 18 9 38.5t3 53.5v418q0 135 -1 213t-3 117t-5 50t-5 17zM608 1012q39 8 92 8q139 0 203 -73t64 -228v-625q0 -43 1 -61.5t5 -32.5h-240q2 10 2 25v555q0 90 -2 149t-5 96t-6 56.5t-7 29.5q-8 25 -32 54.5 t-75 46.5z" />
<glyph unicode="o" horiz-adv-x="1308" d="M276 887q92 92 211 133q-10 -16 -18 -32.5t-18 -39.5q-59 -150 -60 -399q0 -352 72 -502q6 -12 13 -24.5t13 -22.5q-117 37 -213 133q-159 157 -159 370q0 226 159 384zM834 1018q109 -37 202 -133q156 -158 156 -385q0 -250 -197 -402q-75 -59 -153 -90q18 33 30 80 q39 141 39 410q0 166 -12 278.5t-35 177.5q-14 33 -30 64z" />
<glyph unicode="p" horiz-adv-x="1251" d="M94 961q66 4 126.5 14t117.5 24v-860v-266v-152q0 -123 9 -202.5t26 -122.5l4 -4h-264v26v1448q0 57 -19 95zM700 1022q160 -8 271 -135q123 -135 123 -352q0 -231 -129 -385q-106 -123 -254 -146q47 45 72.5 120t36.5 153.5t13.5 151.5t2.5 116q0 369 -136 477z" />
<glyph unicode="q" horiz-adv-x="1423" d="M201 528q0 212 123 353q109 123 270 135q-135 -109 -135 -477q0 -43 2 -116t14 -151.5t38 -152.5t73 -119q-152 23 -254 145q-131 154 -131 383zM918 -612l4 4q16 43 25 122.5t9 202.5v150v266v858q55 -14 117 -23.5t127 -15.5q-18 -35 -18 -94v-1442v-28h-264z" />
<glyph unicode="r" horiz-adv-x="966" d="M152 977q70 6 134 15t124 26v-205v-281v-184q0 -131 8 -214t26 -130l5 -4h-279v29v850q0 61 -18 98zM664 862q0 27 22 56q20 23 21 51q0 47 -43 69q10 2 21 3t24 1h3q59 0 103 -38q39 -43 39 -99q0 -55 -31 -88q-27 -29 -73 -29q-53 0 -69.5 19.5t-16.5 54.5z" />
<glyph unicode="s" horiz-adv-x="966" d="M115 0v209q33 -59 75.5 -112.5t98.5 -96.5h-174zM178 932q-2 -10 -2 -17.5v-17.5q0 -94 66 -147q55 -47 198 -99q229 -81 301 -153q68 -68 68 -193q0 -152 -92 -244q0 -2 -2 -4q12 39 12 86q0 92 -65 154q-8 8 -21.5 17.5t-38 21.5t-62.5 26.5t-94 32.5q-186 63 -260 144 q-71 73 -71 195q0 116 63 198zM633 1020h176v-209q-35 59 -78 112.5t-98 96.5z" />
<glyph unicode="t" horiz-adv-x="653" d="M96 1020h2h-2q70 41 133.5 92t116.5 119v-172v-39v-819v-19v-4q12 -74 41 -112.5t64 -57.5q-23 -4 -48.5 -6t-54.5 -2q-86 0 -137 18.5t-76 55.5q-16 27 -20 49v801q0 59 -19 96zM422 1018h170v-203q-33 57 -75 109.5t-95 93.5z" />
<glyph unicode="u" horiz-adv-x="1249" d="M150 977q66 6 128 15t119 24v-197v-383q0 -92 4.5 -154.5t9.5 -102.5t12 -62.5t13 -34.5q29 -51 70 -72q-33 -8 -74 -8q-139 0 -219 88q-16 16 -30.5 62.5t-14.5 142.5v586q0 59 -18 96zM788 1018h269q2 -8 2 -29l-2 -733q0 -82 2 -111.5t4 -40.5q4 -12 10 -20 q-39 -4 -68.5 -7t-52.5 -7q-68 -12 -125 -41v653q0 248 -34 332z" />
<glyph unicode="v" horiz-adv-x="851" d="M4 1024h279v-19.5t7 -46t24.5 -89t50.5 -148.5q43 -117 81.5 -216t73.5 -179l15 -33l-109 -293q-4 10 -10 21.5t-13 27.5q-27 57 -111.5 262t-230.5 561q-27 66 -39 102t-18 50zM633 1024h174l-49 -133q-29 39 -58.5 71.5t-66.5 61.5z" />
<glyph unicode="w" horiz-adv-x="1478" d="M115 1024h276v-19.5t7.5 -45t24.5 -88t50 -146.5q43 -117 81 -215t73 -176l12 -33l-107 -289q-4 10 -10 21.5t-12 25.5q-25 57 -110 261t-228 554q-27 63 -39 100.5t-18 49.5zM791 705l73 204q14 43 29 72q6 -14 14 -32.5t19 -43.5q10 -29 32.5 -84t53.5 -135l86 -203h2 q4 -8 15 -34.5t32 -73.5l20 -43q-35 -98 -60.5 -177t-45.5 -139q-4 10 -12.5 30t-14.5 34q-12 29 -51 127t-104 270q-10 23 -26.5 69t-45.5 116zM1235 1020h172l-49 -131q-49 74 -123 131z" />
<glyph unicode="x" horiz-adv-x="1167" d="M86 0h174q-23 16 -36 27.5t-24.5 21.5t-20.5 22.5t-21 30.5zM141 1020h287q-14 -12 -8 -21l420 -776q53 -104 84.5 -152t52.5 -71h-289q0 2 1 4t1 4q0 4 -4 25q-4 16 -15.5 43.5t-35 74t-62 116t-98.5 171.5l-106 187q-33 59 -59.5 107t-47.5 85l-67 117 q-16 27 -29.5 48.5t-24.5 37.5zM778 1020q23 -16 36 -27.5t24.5 -21.5t20.5 -22.5t22 -30.5l71 102h-174z" />
<glyph unicode="y" horiz-adv-x="854" d="M-76 -518q-6 15 -6 32q0 21 10 44q23 47 45.5 53t53.5 -10q23 -8 39 -41q14 -25 36 -37q18 -8 39 -7t39 17q-6 -23 -14 -41q-27 -58 -78 -76q-23 -8 -45 -8q-28 0 -55 12q-45 20 -64 62zM-31 1022h254q-2 -8 -2 -18q0 -33 25 -95q16 -45 21 -58t5 -15l2 -9 q59 -168 109.5 -297t89.5 -217l16 -34q-29 -76 -53 -144.5t-47 -128.5q-10 23 -21.5 50.5t-25.5 62.5q-37 92 -87 215t-112 276q-14 37 -47 119t-86 207q-20 51 -41 86zM598 1022h166l-47 -127q-47 72 -119 127z" />
<glyph unicode="z" horiz-adv-x="1165" d="M172 0q53 94 127 224t170 298q47 76 103.5 171t125.5 210l66 121h248q-16 -31 -46 -82t-79 -137l-467 -805h-248zM172 817v207h180q-57 -43 -101 -96.5t-79 -110.5zM831 2q55 43 100.5 96.5t80.5 112.5v-209h-181z" />
<glyph unicode="&#xab;" d="M176 733v2q27 45 49 107l277 706q10 -31 18 -54.5t17 -39.5l61 -160l-41 -114l-166 -488q-12 -35 -18 -57.5t-9.5 -35.5t-4.5 -20.5t-1 -13.5q0 -4 2 -7t2 -5l392 -391l8 -8l149 -150l2 -4h-301q45 16 72 37.5t41 44t19.5 43t7.5 33.5zM528 733l2 2q27 45 50 107l276 706 q10 -31 18.5 -54.5t16.5 -39.5l61 -160l-41 -114l-166 -488q-12 -35 -18 -57.5t-9 -35.5t-4 -20.5t-1 -13.5q0 -4 2 -7t2 -5l389 -391l10 -8l150 -150l2 -4h-301q45 16 71.5 37.5t41 44t19.5 43t7 33.5z" />
<glyph unicode="&#xbb;" horiz-adv-x="1847" d="M219 0l2 4l150 150l8 8l391 391q0 2 2 5t2 7q0 6 -2 13.5t-5 20.5t-9 35.5t-17 57.5l-166 488l-43 114l64 160q8 16 16.5 40t18.5 54l276 -706q23 -61 49 -107v-2l-575 -575q2 -12 7 -33t19.5 -43.5t41 -44t71.5 -37.5h-301zM571 0l4 4l150 150l8 8l391 391q0 2 2 5t2 7 q0 6 -2 13.5t-5 20.5t-9 35.5t-18 57.5l-164 488l-43 114l63 160q8 16 16.5 40t18.5 54l277 -706q23 -61 49 -107v-2l-576 -575q2 -12 7.5 -33t19.5 -43.5t40.5 -44t71.5 -37.5h-303z" />
<glyph unicode="&#xe8;" horiz-adv-x="1136" d="M145 514q0 223 142 371q90 94 207 127q-23 -35 -41 -101q-16 -55 -28.5 -149.5t-12.5 -241.5q0 -311 137 -448q51 -53 117 -74q-229 2 -375 145q-145 143 -146 371zM455 1378q-10 55 30 111q12 18 29 35q4 4 8 0t4 -8q-6 -41 27 -64q18 -12 47 -12q34 1 59 -15 q29 -20 38.5 -45.5t-23.5 -72.5q-27 -39 -70 -45q-45 -6 -90 26q-49 33 -59 90zM801 1010q2 -2 2 -3t2 -3q31 -84 31 -273h196q-2 12 -4 25.5t-4 23.5q-33 123 -139 191q-33 23 -84 39z" />
<glyph unicode="&#xe9;" horiz-adv-x="1079" d="M111 516q0 223 141 371q90 94 207 127q-23 -35 -41 -101q-16 -55 -28.5 -149.5t-12.5 -241.5q0 -311 137 -448q51 -53 117 -74q-229 2 -375 145q-145 143 -145 371zM419.5 1381.5q8.5 25.5 37.5 45.5q25 16 61 15q27 0 45 12q35 23 29 64q-2 4 2 8q6 4 10 0 q8 -8 14.5 -16.5t14.5 -18.5q37 -57 29 -111q-10 -57 -58 -90q-45 -33 -90 -26q-43 6 -70 45q-33 47 -24.5 72.5zM766 1012q51 -16 84 -39q106 -68 139 -191q2 -10 4 -23.5t4 -25.5h-196q0 188 -31 273q-2 2 -2 3t-2 3z" />
<glyph unicode="&#xea;" horiz-adv-x="1107" d="M115 516q0 227 141 371q86 92 207 127q-23 -35 -41 -101q-16 -55 -28.5 -149.5t-12.5 -241.5q0 -313 137 -448q49 -51 115 -74q-227 2 -373 145q-145 143 -145 371zM360 1376q14 31 50 45q38 20 77 4q37 -10 60 -57q4 -10 6 -17.5t4 -15.5q-27 23 -59 8q-18 -12 -27 -28 q-16 -25 -31 -33q-25 -10 -43 -6t-35 41q-12 33 -2 59zM557 1335q4 8 6 15.5t6 17.5q19 45 60 57q39 16 78 -4q33 -14 47 -45q12 -31 -2 -59q-16 -37 -35 -41t-41 6q-18 10 -31 33q-12 20 -29 28q-33 14 -59 -8zM770 1012q45 -14 84 -39q106 -68 137 -191q8 -25 10 -49h-198 q2 190 -31 273q0 2 -1 3t-1 3z" />
<glyph unicode="&#xf2;" d="M0 508q0 221 160 381q98 96 211 131q-10 -16 -18.5 -32.5t-16.5 -37.5q-61 -147 -62 -399q0 -176 18.5 -299t53.5 -201q6 -12 13.5 -24.5l13.5 -22.5q-113 35 -213 133q-160 160 -160 371zM403 1360q0 53 48 104q10 8 17 15.5t17 13.5q4 4 9 0q4 -6 2 -8q-12 -39 16 -68 q14 -16 43 -20q39 -7 57 -25q27 -25 31 -52.5t-37 -68.5q-33 -33 -78 -30q-47 4 -84 41q-41 41 -41 98zM715 1020q113 -41 203 -133q156 -158 155 -385q0 -246 -196 -400q-37 -29 -74 -51.5t-78 -38.5q18 33 31 80q37 143 37 408q0 166 -11.5 277.5t-36.5 176.5 q-12 39 -30 66z" />
<glyph unicode="&#xf3;" d="M2 506q0 221 160 381q98 96 211 131q-10 -16 -18.5 -32.5t-16.5 -37.5q-61 -147 -62 -399q0 -176 18.5 -299t53.5 -201q6 -12 13.5 -24.5l13.5 -22.5q-113 35 -213 133q-160 160 -160 371zM404 1317.5q3 27.5 30 52.5q18 18 58 25q29 4 43 20q29 29 16 68q-4 2 2 8 q4 4 8 0q18 -12 35 -29q47 -47 47 -104q2 -55 -41 -98q-39 -39 -84 -41q-41 -2 -78 30q-39 41 -36 68.5zM717 1018q113 -41 203 -133q156 -158 155 -385q0 -246 -196 -400q-37 -29 -74 -51.5t-78 -38.5q18 33 31 80q37 143 37 408q0 166 -11.5 277.5t-35.5 176.5 q-12 39 -31 66z" />
<glyph unicode="&#x2000;" horiz-adv-x="835" />
<glyph unicode="&#x2001;" horiz-adv-x="1671" />
<glyph unicode="&#x2002;" horiz-adv-x="835" />
<glyph unicode="&#x2003;" horiz-adv-x="1671" />
<glyph unicode="&#x2004;" horiz-adv-x="557" />
<glyph unicode="&#x2005;" horiz-adv-x="417" />
<glyph unicode="&#x2006;" horiz-adv-x="278" />
<glyph unicode="&#x2007;" horiz-adv-x="278" />
<glyph unicode="&#x2008;" horiz-adv-x="208" />
<glyph unicode="&#x2009;" horiz-adv-x="334" />
<glyph unicode="&#x200a;" horiz-adv-x="92" />
<glyph unicode="&#x202f;" horiz-adv-x="334" />
<glyph unicode="&#x205f;" horiz-adv-x="417" />
<glyph unicode="&#x25fc;" horiz-adv-x="1024" d="M0 0v1024h1024v-1024h-1024z" />
</font>
</defs>
</svg>
