<?xml version="1.0" encoding="utf-8"?>
<!-- Generator: Adobe Illustrator 16.0.0, SVG Export Plug-In . SVG Version: 6.00 Build 0)  -->
<!DOCTYPE svg PUBLIC "-//W3C//DTD SVG 1.1//EN" "http://www.w3.org/Graphics/SVG/1.1/DTD/svg11.dtd">
<svg version="1.1" id="Layer_1" xmlns="http://www.w3.org/2000/svg" xmlns:xlink="http://www.w3.org/1999/xlink" x="0px" y="0px"
	 width="480px" height="640px" viewBox="0 0 480 640" enable-background="new 0 0 480 640" xml:space="preserve">
<rect y="-1" fill="#243A66" width="480" height="641"/>
<g>
	<circle fill="#3F5E8E" cx="240" cy="241" r="135.835"/>
	<path fill-rule="evenodd" clip-rule="evenodd" fill="#36547F" d="M323.442,310.675c-5-7.28-5.885-4.177-10.551-11.241
		c-3.267-4.945-1.817-11.766,3.68-17.318c0,1.996,0,3.595,0,5.191c0.29,0.203,0.58,0.406,0.87,0.607
		c1.692-1.834,3.386-3.666,5.075-5.502c10.063-10.914,19.729-22.21,24.407-36.576c2.001-6.145,2.629-12.81,3.286-19.299
		c0.803-7.931-3.364-13.601-9.462-18.163c-1.19-0.89-2.536-2.182-2.864-3.521c-5.06-20.645-20.66-29.153-39.277-33.74
		c-8.413-2.072-17.148-2.839-25.738-4.198c-0.149,0.374-0.3,0.748-0.45,1.123c3.077,2.176,6.151,4.352,10.029,7.095
		c-9.197,0-17.362,0-25.527,0c-0.078,0.408-0.156,0.816-0.234,1.224c2.685,1.057,5.372,2.114,9.142,3.597
		c-12.391,2.955-23.814,5.705-31.839,16.263c2.503,0.205,4.288,0.351,6.577,0.538c-1.271,2.562-2.698,4.648-3.367,6.956
		c-1.166,4.018-2.506,8.155-2.599,12.27c-0.124,5.423-2.333,9.249-6.532,12.148c-2.884,1.993-5.979,3.678-8.956,5.538
		c-3.564,2.226-4.24,4.381-1.432,7.438c2.442,2.659,2.718,4.895,0.697,7.642c-2.56,3.481,0.616,4.876,2.771,7.015
		c-3.545,1.744-2.983,3.652-1.336,6.82c1.193,2.295,0.465,5.975-0.271,8.815c-1.893,7.302-1.035,9.436,6.251,11.702
		c3.056,0.952,6.28,1.383,9.447,1.947c4.96,0.887,8.907,3.346,10.677,8.097c1.871,5.022,3.696,10.2,4.461,15.468
		c0.804,5.537-1.654,8.546-7.02,10.717c-2.705,1.097-5.477,2.043-8.252,2.947c-15.283,4.977-26.829,14.025-32.44,29.598
		c-0.196,0.547-0.483,1.066-0.773,1.572c-0.137,0.242-0.379,0.426-0.578,0.633c-41.895-10.299-84.024-51.051-89.819-106.244
		c-6.671-63.536,32.99-115.587,86.213-132.217c61.508-19.219,124.972,14.204,145.065,68.564
		C362.242,236.854,358.064,276.648,323.442,310.675z M175.535,217.211c0.257-0.096,0.514-0.192,0.771-0.288
		c-0.834-7.201-1.589-14.413-2.55-21.596c-0.297-2.222,0.117-3.466,2.356-4.368c3.721-1.498,7.285-3.387,11.751-5.507
		c-3.958-1.493-6.857-3.052-9.94-3.638c-4.828-0.917-5.448-3.714-4.765-7.834c0.818-4.934,1.333-9.918,1.979-14.88
		c-4.474,4.298-8.081,8.828-11.427,13.542c-1.549,2.181-2.853,2.849-5.35,1.344c-2.611-1.575-5.535-2.629-9.347-4.382
		c1.839,3.773,2.79,6.627,4.463,8.965c3.408,4.766,2.556,8.986-0.331,13.621c-2.541,4.082-4.436,8.564-6.615,12.87
		c0.226,0.137,0.451,0.274,0.678,0.411c4.523-2.883,9.047-5.765,13.749-8.762C165.953,203.735,170.743,210.473,175.535,217.211z"/>
	<path fill-rule="evenodd" clip-rule="evenodd" fill="#4D6E96" d="M322.07,317.621c-5.001-7.279-9.891-14.195-14.557-21.259
		c-3.267-4.946-1.817-11.767,3.681-17.319c0,1.996,0,3.594,0,5.191c0.29,0.203,0.58,0.406,0.87,0.608
		c1.692-1.835,3.385-3.667,5.075-5.503c10.063-10.914,19.729-22.21,24.406-36.576c2.002-6.145,2.629-12.811,3.287-19.299
		c0.803-7.931-3.365-13.601-9.463-18.163c-1.19-0.891-2.535-2.182-2.863-3.521c-5.06-20.645-20.661-29.153-39.277-33.74
		c-8.415-2.072-17.149-2.839-25.738-4.198c-0.15,0.375-0.3,0.748-0.45,1.123c3.077,2.176,6.151,4.352,10.029,7.095
		c-9.198,0-17.362,0-25.528,0c-0.078,0.408-0.154,0.816-0.234,1.224c2.687,1.056,5.373,2.113,9.143,3.597
		c-12.391,2.955-23.812,5.705-31.84,16.263c2.502,0.206,4.289,0.351,6.578,0.538c-1.271,2.562-2.699,4.649-3.367,6.955
		c-1.167,4.019-2.507,8.156-2.6,12.27c-0.123,5.424-2.333,9.25-6.532,12.148c-2.884,1.993-5.979,3.678-8.956,5.538
		c-3.564,2.226-4.24,4.382-1.431,7.439c2.442,2.659,2.718,4.894,0.696,7.641c-2.56,3.482,0.616,4.876,2.771,7.016
		c-3.545,1.745-2.983,3.652-1.337,6.819c1.194,2.297,0.465,5.976-0.271,8.815c-1.894,7.303-1.035,9.436,6.251,11.703
		c3.055,0.953,6.28,1.383,9.447,1.947c4.96,0.887,8.907,3.346,10.678,8.096c1.87,5.023,3.695,10.2,4.46,15.469
		c0.805,5.537-1.654,8.545-7.02,10.717c-2.705,1.096-5.477,2.043-8.252,2.947c-15.284,4.978-26.829,14.023-32.44,29.598
		c-0.197,0.547-0.483,1.064-0.774,1.57c-0.137,0.244-0.379,0.428-0.578,0.633c-41.895-10.297-84.024-51.049-89.819-106.242
		c-6.67-63.536,32.99-115.588,86.213-132.217c61.508-19.219,122.888,10.034,150.035,61.238
		C369.172,224.342,356.693,283.596,322.07,317.621z M170.158,214.139c0.257-0.097,0.514-0.193,0.771-0.288
		c-0.834-7.201-1.589-14.412-2.549-21.596c-0.297-2.222,0.116-3.465,2.356-4.367c3.721-1.498,7.284-3.386,11.751-5.508
		c-3.958-1.493-6.857-3.052-9.94-3.637c-4.828-0.917-5.448-3.714-4.765-7.835c0.818-4.934,1.333-9.918,1.979-14.88
		c-4.474,4.298-8.081,8.827-11.427,13.541c-1.549,2.182-2.853,2.85-5.35,1.344c-2.611-1.576-5.535-2.628-9.348-4.382
		c1.839,3.773,2.79,6.627,4.463,8.966c3.409,4.766,2.557,8.986-0.33,13.62c-2.541,4.083-4.436,8.564-6.615,12.871
		c0.226,0.136,0.452,0.274,0.678,0.411c4.523-2.883,9.046-5.765,13.749-8.762C160.576,200.663,165.366,207.4,170.158,214.139z"/>
</g>
<g>
	<path fill="#E3DED2" d="M109.297,94.713c-2.453,8.796-25.527,27.728-41.714,32.384c-3.216-1.944-6.814-11.47-6.814-11.47
		S79.955,92.11,109.297,94.713z"/>
	<path fill="#EB5B5B" d="M61.686,123.723c0,0-27.162,0.099-28.202,11.932c4.999-3.029,11.665-2.967,11.665-2.967
		s-15.103,6.529-6.168,11.791c2.099-4.942,6.06-5.495,6.06-5.495s6.902-1.229,4.847,6.816c5.201-2.255,13.716-14.146,8.001-15.443
		C52.171,129.06,61.686,123.723,61.686,123.723z"/>
	<path fill="#FF9381" d="M84.18,98.867c0,0,5.05-3.051,12.202-3.704c-0.872,1.643,5.05,11.518,6.535,8.93
		c-1.463,2.55-9.254,8.715-13.194,11.101C86.327,113.124,79.578,100.907,84.18,98.867z"/>
	<path fill="#E3DED2" d="M85.435,98.205c-0.504,2.069,1.816,13.031,7.586,14.766c0.633-0.346,0.758-0.557,0.758-0.557
		s-7.004-4.541-7.447-14.625L85.435,98.205z"/>
	<path fill="#FF9381" d="M86.032,119.085c0,0-0.532,12.877-11.193,17.745c1.024-2.24,0.067-9.285-3.018-10.145
		C74.207,125.755,83.562,121.38,86.032,119.085z"/>
	<path fill="#FF9381" d="M75.555,102.152c0,0-11.898-4.952-20.811,2.66c2.463,0.018,8.446,3.858,7.924,7.018
		C64.518,110.059,72.433,103.423,75.555,102.152z"/>
</g>
<g>
	<path fill="#E3DED2" d="M318.414,87.866c6.835-2.436,29.695,3.875,40.135,12.252c1.871,7.645-4.328,9.68-4.328,9.68
		S330.163,108.11,318.414,87.866z"/>
	<path fill="#EB5B5B" d="M362.969,106.517c0,0,19.521,9.209,16.289,18.078c-2.579-3.862-7.397-6.061-7.397-6.061
		s8.677,9.78,0.474,10.564c0.152-4.264-2.515-5.995-2.515-5.995s-4.554-3.207-5.782,3.277c-2.986-3.374-5.115-14.797-0.564-13.809
		S362.969,106.517,362.969,106.517z"/>
	<path fill="#FF9381" d="M344.894,91.809c0,0,8.607-5.554,16.651-0.86c-1.923,0.361-6.06,4.209-5.206,6.606
		C354.643,96.432,347.517,92.361,344.894,91.809z"/>
	<path fill="#FF9381" d="M338.699,106.368c0,0,2.234,9.994,11.259,12.294c-1.116-1.606-1.361-7.251,0.929-8.359
		C348.89,109.913,340.955,107.814,338.699,106.368z"/>
	<path fill="#FF9381" d="M318.414,87.866c1.984-0.707,5.318-0.677,9.307-0.073c4.182,0.632-0.683,10.951-4.356,6.871
		C321.566,92.669,319.892,90.415,318.414,87.866z"/>
	<circle fill="#FF9381" cx="333.716" cy="95.289" r="3.232"/>
</g>
<g>
	<path fill="#E3DED2" d="M139.418,181.172c0.481,7.24-11.824,27.516-22.728,35.274c-7.867-0.282-8.134-6.802-8.134-6.802
		S116.737,186.958,139.418,181.172z"/>
	<path fill="#EB5B5B" d="M105.789,217.697c0,0-20.011,8.087-17.288,17.125c2.794-3.71,7.73-5.632,7.73-5.632
		s-9.216,9.272-1.071,10.52c0.088-4.266,2.85-5.843,2.85-5.843s4.729-2.943,5.587,3.601c3.173-3.199,5.947-14.484,1.348-13.754
		C100.343,224.44,105.789,217.697,105.789,217.697z"/>
	<path fill="#FF9381" d="M128.406,205.575c0,0,2.998,9.795-3.712,16.254c0.178-1.949-2.397-6.977-4.936-6.81
		C121.302,213.694,127.16,207.947,128.406,205.575z"/>
	<path fill="#FF9381" d="M116.087,195.646c0,0-10.224-0.575-14.897,7.482c1.849-0.637,7.348,0.665,7.79,3.171
		C109.899,204.484,114.082,197.421,116.087,195.646z"/>
	<path fill="#FF9381" d="M139.418,181.172c0.139,2.101-0.798,5.302-2.466,8.975c-1.749,3.851-10.351-3.643-5.424-6.065
		C133.938,182.896,136.563,181.899,139.418,181.172z"/>
	<circle fill="#FF9381" cx="128.105" cy="193.871" r="3.233"/>
</g>
<g>
	<path fill="#E3DED2" d="M417.547,252.093c3.325,4.851,3.121,24.071-1.277,33.986c-5.602,3.052-8.482-1.384-8.482-1.384
		S404.12,265.497,417.547,252.093z"/>
	<path fill="#EB5B5B" d="M412.54,288.941c0,0,5.539,16.593-1.465,19.667c0.816-3.673-0.595-7.729-0.595-7.729
		s-0.869,10.562-5.923,6.194c2.584-2.297,2.104-4.83,2.104-4.83s-0.673-4.463-5.158-1.551c0.304-3.64,5.803-11.286,7.772-8.065
		C411.246,295.846,412.54,288.941,412.54,288.941z"/>
	<path fill="#FF9381" d="M419.947,273.659c0,0,6.137,5.592,4.127,12.867c-0.681-1.432-4.555-3.875-6.255-2.709
		C418.348,282.255,420.059,275.828,419.947,273.659z"/>
	<path fill="#FF9381" d="M407.257,271.824c0,0-7.368,3.822-7.298,11.37c1.026-1.208,5.398-2.571,6.741-1.006
		C406.592,280.542,406.59,273.89,407.257,271.824z"/>
	<path fill="#FF9381" d="M417.547,252.093c0.965,1.408,1.633,4.027,1.988,7.277c0.371,3.407-8.722,1.735-6.288-1.99
		C414.438,255.56,415.856,253.779,417.547,252.093z"/>
	<circle fill="#FF9381" cx="414.903" cy="265.622" r="2.62"/>
</g>
<g>
	<g>
		<path fill="#E3DED2" d="M215.636,548.104c0,1.21-0.236,2.213-0.708,3.01c-0.472,0.796-1.073,1.383-1.805,1.759
			s-1.477,0.563-2.235,0.563c-0.547,0-1.021-0.063-1.42-0.189c-0.4-0.127-0.711-0.264-0.934-0.41
			c-0.222-0.147-0.453-0.323-0.692-0.528v0.943h-3.691V539.04h3.691v4.389c0.273-0.212,0.649-0.398,1.128-0.559
			c0.479-0.161,1.032-0.241,1.661-0.241c0.841,0,1.583,0.152,2.225,0.456c0.643,0.305,1.167,0.717,1.574,1.235
			c0.406,0.521,0.709,1.103,0.907,1.749C215.537,546.715,215.636,547.394,215.636,548.104z M211.75,548.022
			c0-0.896-0.202-1.577-0.605-2.046c-0.403-0.468-0.882-0.702-1.436-0.702s-1.176,0.223-1.866,0.667v3.988
			c0.52,0.492,1.142,0.738,1.866,0.738c0.458,0,0.913-0.187,1.364-0.559C211.524,549.736,211.75,549.041,211.75,548.022z"/>
		<path fill="#E3DED2" d="M228.443,542.813L221.348,558h-3.732l2.871-6.111l-4.132-9.075h3.968l2.123,5.188l2.41-5.188H228.443z"/>
		<path fill="#E3DED2" d="M250.951,546.402c0,1.456-0.266,2.625-0.795,3.507c-0.53,0.882-1.154,1.597-1.871,2.144
			c-1.02,0.799-2.444,1.199-4.276,1.199h-7.67V539.04h5.906c0.889,0,1.649,0.046,2.281,0.139c0.632,0.092,1.202,0.222,1.708,0.39
			c0.506,0.167,0.936,0.355,1.291,0.563c0.355,0.209,0.674,0.433,0.954,0.672c0.485,0.396,0.911,0.865,1.276,1.405
			s0.656,1.165,0.872,1.876C250.843,544.796,250.951,545.568,250.951,546.402z M246.593,546.218c0-1.155-0.221-2.056-0.661-2.702
			c-0.441-0.646-0.971-1.078-1.59-1.297s-1.249-0.328-1.892-0.328h-1.825v8.418h1.825c1.121,0,2.092-0.266,2.912-0.799
			S246.593,547.879,246.593,546.218z"/>
		<path fill="#E3DED2" d="M268.301,553.252h-4.389l-1.159-2.881h-6.173l-1.18,2.881h-4.389l6.286-14.212h4.737L268.301,553.252z
			 M261.769,547.899l-2.081-5.188l-2.103,5.188H261.769z"/>
		<path fill="#E3DED2" d="M285.619,553.252h-3.814l-7.373-7.916v7.916h-4.244V539.04h3.804l7.353,7.875v-7.875h4.275V553.252z"/>
		<path fill="#E3DED2" d="M304.394,546.136c0,1.326-0.306,2.547-0.917,3.661c-0.612,1.114-1.522,1.999-2.733,2.655
			c-1.209,0.656-2.683,0.984-4.419,0.984c-1.757,0-3.244-0.342-4.461-1.025s-2.121-1.582-2.712-2.696s-0.887-2.308-0.887-3.579
			c0-1.278,0.294-2.473,0.882-3.584c0.588-1.11,1.492-2.006,2.712-2.687c1.221-0.68,2.709-1.02,4.466-1.02
			c1.312,0,2.482,0.194,3.512,0.584s1.875,0.918,2.538,1.584c0.663,0.667,1.165,1.442,1.508,2.328
			C304.223,544.227,304.394,545.158,304.394,546.136z M300.026,546.136c0-0.533-0.079-1.021-0.236-1.461
			c-0.157-0.441-0.395-0.824-0.713-1.148c-0.317-0.325-0.706-0.578-1.163-0.759c-0.459-0.182-0.988-0.271-1.59-0.271
			c-1.148,0-2.051,0.335-2.707,1.004c-0.656,0.671-0.984,1.549-0.984,2.636s0.33,1.967,0.989,2.641
			c0.659,0.673,1.561,1.01,2.702,1.01c0.786,0,1.456-0.155,2.01-0.467c0.554-0.311,0.975-0.741,1.261-1.292
			C299.882,547.478,300.026,546.847,300.026,546.136z"/>
		<path fill="#E3DED2" d="M322.195,553.252h-3.814l-7.373-7.916v7.916h-4.245V539.04h3.804l7.353,7.875v-7.875h4.276V553.252z"/>
		<path fill="#E3DED2" d="M336.479,553.252h-10.716V539.04h10.541v2.851h-6.255v2.604h5.968v2.86h-5.968v3.035h6.43V553.252z"/>
	</g>
	<g>
		<path fill="#E3DED2" d="M163.047,500.926l0.391,15.332c-3.451,3.451-6.853,5.176-10.205,5.176c-4.427,0-7.333-0.911-8.716-2.734
			c-1.384-1.822-2.474-6.055-3.271-12.695c-0.798-6.641-1.196-11.368-1.196-14.185c0-2.815,0.163-5.916,0.488-9.302
			c0.325-3.385,0.586-6.616,0.781-9.692s0.537-5.655,1.025-7.739c1.595-7.031,5.371-10.547,11.328-10.547
			c2.051,0,3.076,0.473,3.076,1.416c0,0.456-0.22,0.822-0.659,1.099c-0.439,0.277-0.887,0.415-1.343,0.415l-1.904-0.195
			c-2.246,0-4.004,1.433-5.273,4.297c-1.367,3.19-2.222,6.137-2.563,8.838c-0.342,2.702-0.594,4.851-0.757,6.445
			c-0.163,1.596-0.277,3.418-0.342,5.469c-0.098,3.093-0.146,5.974-0.146,8.643c0,2.67,0.098,4.802,0.293,6.396
			c0.521,0.814,0.862,2.141,1.025,3.979c0.163,1.84,0.301,3.687,0.415,5.542c0.114,1.855,0.374,3.695,0.781,5.518
			c0.407,1.823,1.277,3.305,2.612,4.443c1.334,1.14,3.157,1.709,5.469,1.709c4.004,0,6.006-5.322,6.006-15.967v-7.324
			c-0.684-0.684-1.855-1.025-3.516-1.025l-1.904,0.098c-1.595,0-2.393-0.391-2.393-1.172c0-1.139,0.797-1.709,2.393-1.709
			c6.152,0,9.229,0.668,9.229,2.002L163.047,500.926z"/>
		<path fill="#E3DED2" d="M174.131,457.859c0-2.539,0.732-3.809,2.197-3.809c3.255,0,5.94,0.822,8.057,2.466
			c2.116,1.645,3.174,4.062,3.174,7.251v7.275c0,2.572-1.302,6.25-3.906,11.035c-0.879,1.596-1.318,2.466-1.318,2.612
			s1.261,5.42,3.784,15.82c2.522,10.4,3.849,15.764,3.979,16.089c0.13,0.326,0.456,1.01,0.977,2.051
			c0.521,1.042,0.781,1.938,0.781,2.686s-0.375,1.123-1.123,1.123l-1.465-0.488c-1.562-1.758-3.271-8.268-5.127-19.531
			c-1.791-10.872-3.32-16.309-4.59-16.309h-0.391c-1.465,0-2.197,0.473-2.197,1.416c0,3.646,0.211,9.709,0.635,18.188
			c0.423,8.48,0.781,13.225,1.074,14.233l-0.732,1.66h-1.465l-0.732-0.781C174.668,491.975,174.131,470.979,174.131,457.859z
			 M176.963,459.227l0.391,24.219l0.195,0.195c1.27,0,2.409-0.659,3.418-1.978c1.009-1.318,1.774-2.921,2.295-4.81
			c1.074-3.906,1.611-6.868,1.611-8.887c0-2.018-0.065-3.54-0.195-4.565c-0.13-1.025-0.407-2.107-0.83-3.247
			c-0.879-2.344-2.783-3.516-5.713-3.516c-0.391,0-0.684,0.31-0.879,0.928C177.061,458.186,176.963,458.738,176.963,459.227z"/>
		<path fill="#E3DED2" d="M213.926,505.857l-2.637,0.098c-0.944-0.391-1.986-0.586-3.125-0.586c-1.14,0-1.758,0.033-1.855,0.098
			c-0.098,0.065-0.163,0.18-0.195,0.342c-0.033,0.163-0.065,0.277-0.098,0.342l-0.195,2.002c-0.13,1.693-0.439,3.728-0.928,6.104
			c-0.912,4.655-1.872,6.982-2.881,6.982c-0.423,0-0.863-0.18-1.318-0.537c-0.456-0.357-0.684-0.748-0.684-1.172
			c0.846-2.506,1.725-6.299,2.637-11.377c0.911-5.078,1.481-8.243,1.709-9.497c0.228-1.253,0.651-3.784,1.27-7.593
			c0.618-3.809,1.025-6.314,1.221-7.52c0.195-1.204,0.724-3.809,1.587-7.812c0.862-4.004,1.383-6.624,1.562-7.861
			c0.179-1.236,0.382-2.913,0.61-5.029c0.553-5.208,0.993-8.105,1.318-8.691l1.367,0.098c0.813,0,1.416-0.195,1.807-0.586
			c0.423,0,0.83,0.139,1.221,0.415c0.391,0.277,0.586,0.644,0.586,1.099c0,3.19,0.407,9.359,1.221,18.506
			c0.813,9.147,1.457,15.063,1.929,17.749c0.472,2.686,1.017,5.322,1.636,7.91c0.618,2.588,0.928,4.565,0.928,5.933l-0.488,1.367
			c0,1.498,0.276,3.703,0.83,6.616c0.553,2.914,0.83,4.965,0.83,6.152c0,1.188-0.261,1.929-0.781,2.222
			c-1.367,0-2.206-0.195-2.515-0.586c-0.31-0.391-0.464-1.017-0.464-1.88c0-0.862-0.057-1.92-0.171-3.174
			c-0.114-1.253-0.228-2.254-0.342-3.003c-0.114-0.748-0.31-1.929-0.586-3.54c-0.277-1.611-0.448-2.645-0.513-3.101
			C217.148,506.021,215.651,505.857,213.926,505.857z M206.895,500.926c0,0.684,0.797,1.254,2.393,1.709
			c2.441,0.684,5.143,1.025,8.105,1.025h1.025c-0.423-1.302-0.635-2.799-0.635-4.492v-2.295c0-4.134-0.513-10.156-1.538-18.066
			s-1.571-13.802-1.636-17.676c-3.483,17.221-5.64,27.856-6.47,31.909S206.895,499.722,206.895,500.926z"/>
		<path fill="#E3DED2" d="M257.969,452.635c0.748,0.229,1.123,0.651,1.123,1.27c0,0.619-0.082,1.416-0.244,2.393
			c-0.163,0.977-0.391,2.092-0.684,3.345c-0.293,1.254-0.513,2.23-0.659,2.93c-0.146,0.7-0.717,3.239-1.709,7.617
			c-0.993,4.379-1.669,7.739-2.026,10.083c-0.358,2.344-0.749,5.688-1.172,10.034c-0.424,4.346-0.732,7.235-0.928,8.667
			c-0.195,1.433-0.61,3.378-1.245,5.835c-0.635,2.458-1.018,4.045-1.147,4.761c-0.131,0.717-0.229,1.636-0.293,2.759
			c-0.065,1.123-0.163,2.182-0.293,3.174c-0.131,0.993-0.326,2.011-0.586,3.052c-0.521,2.278-1.562,3.418-3.125,3.418l-1.123-0.928
			c0-10.872-2.963-29.361-8.887-55.469c-0.098-0.455-0.375-1.497-0.83-3.125c-1.237-4.427-1.855-6.787-1.855-7.08
			s0.146-0.586,0.439-0.879s0.618-0.439,0.977-0.439c0.357,0,0.732,0.285,1.123,0.854c0.391,0.57,0.716,1.318,0.977,2.246
			c0.26,0.928,0.488,1.831,0.684,2.71s0.374,1.767,0.537,2.661c0.162,0.896,0.366,1.815,0.61,2.759
			c0.244,0.944,0.562,2.287,0.952,4.028c0.391,1.742,0.74,3.329,1.05,4.761c0.309,1.433,0.65,3.149,1.025,5.151
			c0.374,2.002,0.675,3.581,0.903,4.736c0.228,1.156,0.521,2.856,0.879,5.103c0.357,2.246,0.618,3.817,0.781,4.712
			c0.162,0.896,0.431,2.597,0.806,5.103c0.374,2.507,0.602,4.077,0.684,4.712c0.081,0.635,0.325,2.344,0.732,5.127
			c0.406,2.783,0.643,4.403,0.708,4.858c1.367-4.524,2.506-10.921,3.418-19.189c0.911-8.268,2.246-16.772,4.004-25.513
			s2.783-13.973,3.076-15.698L257.969,452.635z M243.271,466.746v0.195h-0.098C243.174,466.812,243.206,466.746,243.271,466.746z
			 M246.055,513.865l-0.098,0.195l0.098,0.195V513.865z"/>
		<path fill="#E3DED2" d="M284.141,519.969l-3.32-0.342c-0.521,0-1.14,0.188-1.855,0.562c-0.717,0.375-1.571,0.562-2.563,0.562
			c-0.993,0-1.62-0.325-1.88-0.977l-1.66,0.098c-1.433,0-2.344-0.342-2.734-1.025c0-0.423,0.187-0.772,0.562-1.05
			c0.374-0.276,0.626-0.496,0.757-0.659h2.881l0.391-0.391l0.342-2.1l-0.732-21.875l0.488-23.34c0-4.524-0.163-8.382-0.488-11.572
			c-0.651-0.195-1.645-0.293-2.979-0.293l-2.393,0.195c-1.27,0-1.904-0.569-1.904-1.709c0-0.293,0.301-0.569,0.903-0.83
			c0.602-0.26,1.099-0.391,1.489-0.391c9.277,0,13.916,1.01,13.916,3.027c0,0.195-0.082,0.456-0.244,0.781l-2.295,0.195
			c-0.521-0.391-1.481-0.586-2.881-0.586l-0.488,0.293c0.195,0.586,0.293,2.36,0.293,5.322l-0.293,23.779l0.684,21.924l-0.098,3.076
			c0,1.562,0.098,2.49,0.293,2.783l-0.098,0.244c0,0.651,0.732,0.977,2.197,0.977l2.93-0.098c1.985,0,2.979,0.473,2.979,1.416
			c0,0.586-0.212,1.066-0.635,1.44C285.279,519.782,284.759,519.969,284.141,519.969z"/>
		<path fill="#E3DED2" d="M310.703,458.055l-5.42-0.684l-0.488,0.586l0.195,0.391c-0.131,0.261-0.195,2.165-0.195,5.713
			c0,3.549,0.553,11.841,1.66,24.878c1.106,13.037,1.66,22.812,1.66,29.321c0,0.488-0.195,0.928-0.586,1.318
			s-0.83,0.586-1.318,0.586l-1.123-0.83l-0.195-7.275l0.195-3.516c0-0.911-0.131-1.709-0.391-2.393
			c0-5.664-0.399-13.916-1.196-24.756c-0.798-10.84-1.229-18.848-1.294-24.023c-5.241,0-8.041-0.635-8.398-1.904
			c0.293-0.748,0.928-1.123,1.904-1.123l13.574,0.928l1.807-0.098c1.204,0,1.807,0.424,1.807,1.27c0,0.456-0.244,0.839-0.732,1.147
			C311.68,457.9,311.191,458.055,310.703,458.055z"/>
		<path fill="#E3DED2" d="M333.945,499.168l0.098,15.869c0,4.818-0.7,7.227-2.1,7.227c-0.229,0-0.505-0.131-0.83-0.391
			c-0.326-0.261-0.537-0.505-0.635-0.732c0.65-1.627,0.977-7.454,0.977-17.48c0-1.953-0.122-4.736-0.366-8.35
			s-0.383-5.973-0.415-7.08l-0.635-1.27l0.293-1.221c-0.847-1.953-2.409-6.168-4.688-12.646c-3.32-9.277-5.014-14.664-5.078-16.162
			l1.367-1.074c0.65,0.098,1.627,2.222,2.93,6.372c1.302,4.15,2.579,8.31,3.833,12.476c1.253,4.167,2.14,6.315,2.661,6.445
			l0.391-1.807l-0.195-0.488c0.488-0.586,1.131-2.954,1.929-7.104c0.797-4.15,1.651-8.089,2.563-11.816
			c0.911-3.727,1.79-5.591,2.637-5.591c0.846,0,1.27,0.358,1.27,1.074c0,0.717-0.358,2.336-1.074,4.858
			c-0.717,2.523-1.384,4.826-2.002,6.909c-0.619,2.084-1.083,3.695-1.392,4.834c-0.31,1.14-0.659,2.572-1.05,4.297
			c-0.781,3.256-1.172,6.299-1.172,9.131c0.325,0.814,0.488,1.384,0.488,1.709l-0.586,2.881L333.945,499.168z"/>
	</g>
</g>
</svg>
