<svg version="1.1" xmlns="http://www.w3.org/2000/svg" xmlns:xlink="http://www.w3.org/1999/xlink"
	 width="400px" height="400px" viewBox="0 0 400 400" >
<g id="Layer_2">
	<circle fill="#FEBF97" cx="199.492" cy="200.509" r="199.492"/>
	<path fill="#8C473B" d="M245.5,148.023c0,0,5.25,26.958,2.75,38.511c3.495-8.041,5.519-32.221,3.381-39.912
		C251,147.323,245.5,148.023,245.5,148.023z"/>
</g>
<path fill="#F2D5CC" d="M250.329,181c0,35.628-17.102,57.778-41.671,57.778c-24.571,0-39.262-28.878-39.262-64.505
	c0-35.623,14.691-64.505,39.262-64.505C233.228,109.768,250.329,145.377,250.329,181z"/>
<path fill="#F2D5CC" d="M194.866,231.366c0,0,12.862,38.117-14.388,47.367c0,0-59.117,18.5-59.048,87.723l88.19-1.35l88.26-3.66
	c-15.402-71.213-64.402-82.963-64.402-82.963s-23.353-8.999-8.683-47.117H194.866z"/>
<g>
	<defs>
		<path id="SVGID_1_" d="M117,400c0,0-7-80,45.342-112.132c2.666,2.627,58.408,35.882,87.987-1.578
			c-0.081,0,49.671,25.96,56.674,113.71C293.271,400,117,400,117,400z"/>
	</defs>
	<clipPath id="SVGID_2_">
		<use xlink:href="#SVGID_1_"  overflow="visible"/>
	</clipPath>
	<circle clip-path="url(#SVGID_2_)" fill="#F7F9F7" cx="199.492" cy="200.509" r="199.492"/>
</g>
<g>
	<path fill="#FFFFFF" d="M212.591,165.512c0.163,2.123-3.9,4.167-9.077,4.566c-5.179,0.399-9.507-0.996-9.67-3.115
		c-0.165-2.123,3.898-4.167,9.078-4.566C208.096,161.997,212.426,163.393,212.591,165.512z"/>
	<path fill="#FFFFFF" d="M240.077,165.742c0.034,2.39-3.989,4.377-8.983,4.445c-4.994,0.067-9.067-1.815-9.1-4.205
		c-0.031-2.388,3.99-4.38,8.986-4.447C235.972,161.472,240.046,163.353,240.077,165.742z"/>
	<ellipse fill="#120E0B" cx="203.665" cy="166.501" rx="2.434" ry="3.113"/>
	<ellipse fill="#120E0B" cx="231.604" cy="166.501" rx="2.434" ry="3.113"/>
</g>
<path fill="#4E78A5" d="M119.263,361.092c0,0,92.657,49.576,179.702-5.413l3.898,15.483c0,0-76.196,56.504-186.026,10.958
	C117.852,372.352,119.263,361.092,119.263,361.092z"/>
<path fill="#4E78A5" d="M122.375,344.335c0,0,87.254,47.625,170.877-4.81l3.992,11.339c0,0-69.862,54.59-177.29,6.021
	C121.8,347.824,122.375,344.335,122.375,344.335z"/>
<path fill="#4E78A5" d="M126.406,331.805c0,0,87.28,44.762,160.802-5.049l3.792,7.909c0,0-60,51.667-167.434,5.769
	C125.5,333,126.406,331.805,126.406,331.805z"/>
<path fill="#8C473B" d="M193.839,97.769c0,0-21.443-4.103-29.945,16.231c-2.503,5.668-6.169,8.667-9.502,3.333
	c-0.667,0.333,2.502,12.333,8,5c-1.502,4.333-11.329,3.334-7.058,4.333c4.73,1.667-8.01,7.685,0,22.231
	c6.49,9.504,14.062,34.846,14.062,37.513s7.169-11.053,7.169-11.053s3.011,10.959,1.434,13.978c-0.244,0.018,8-15.063,6.335-25.95
	c-0.306-7.697-5.992-29.883,4.999-34.717c0.982-0.432,4.506,8.667,10.667,8c12.396,4.667,43.333-12.667,47.001,17.666
	c0.583,1.917,1.567,3.635,2.716,5.135c3.443,4.5,8.362,2.858,8.362,2.858s-7.75-6.578-3.329-16.828
	c1.667-5.333,7.25-22.966-5.416-35.732C245.668,107.001,190,84,196.333,102C194.346,100.667,193.839,97.769,193.839,97.769z"/>
<path fill="#F2D5CC" d="M178.232,175.358c0,0-14.666-12.665-14.333,13.668c0.333,0.333,2.999,16.333,11.333,10
	C175.232,198.359,178.232,175.358,178.232,175.358z"/>
</svg>
