<?xml version="1.0" encoding="utf-8"?>
<!-- Generator: Adobe Illustrator 16.0.0, SVG Export Plug-In . SVG Version: 6.00 Build 0)  -->
<!DOCTYPE svg PUBLIC "-//W3C//DTD SVG 1.1//EN" "http://www.w3.org/Graphics/SVG/1.1/DTD/svg11.dtd">
<svg version="1.1" id="Layer_2" xmlns="http://www.w3.org/2000/svg" xmlns:xlink="http://www.w3.org/1999/xlink" x="0px" y="0px"
	 width="75.864px" height="87.391px" viewBox="0 12.516 75.864 87.391" enable-background="new 0 12.516 75.864 87.391"
	 xml:space="preserve">
<path opacity="0.5" d="M75.865,79.763l-19.42-27.177H72.38l-34.165-40.07L3.557,52.586h16.304L0,79.207l38.042,20.699L75.865,79.763
	z M48.096,44.01l5.363,7.718l-15.308,43.08L22.297,52.712l6.025-8.441L48.096,44.01z M39.682,96.558l15.417-42.206l17.713,24.603
	L39.682,96.558z M55.645,50.635l-6.56-8.748l-8.748,0.219l8.638-13.777l18.807,22.306H55.645z M47.663,26.689L38.236,41.51
	l-8.833-15.258l8.856-10.497L47.663,26.689z M8.301,50.635l19.572-22.743l8.201,14.214l-8.614-0.197l-6.475,8.726H8.301z
	 M3.052,78.517l17.713-23.617L36.62,96.886L3.052,78.517z"/>
</svg>
