<?xml version="1.0" encoding="utf-8"?>
<!-- Generator: Adobe Illustrator 16.0.0, SVG Export Plug-In . SVG Version: 6.00 Build 0)  -->
<!DOCTYPE svg PUBLIC "-//W3C//DTD SVG 1.1//EN" "http://www.w3.org/Graphics/SVG/1.1/DTD/svg11.dtd">
<svg version="1.1" id="Layer_2" xmlns="http://www.w3.org/2000/svg" xmlns:xlink="http://www.w3.org/1999/xlink" x="0px" y="0px"
	 width="86.729px" height="99.906px" viewBox="0 0 86.729 99.906" enable-background="new 0 0 86.729 99.906" xml:space="preserve">
<path d="M86.729,76.878L64.529,45.809h18.216L43.688,0L4.067,45.809h18.638L0,76.242l43.49,23.664L86.729,76.878z M54.984,36.005
	l6.634,9.258L43.662,94.933L25.153,45.959l7.225-9.656L54.984,36.005z M44.909,97.222l18.087-50.035l20.857,29.111L44.909,97.222z
	 M63.132,42.809l-6.857-8.961l-0.297-0.11l-10.611,0.291l10.513-17.244l22.642,26.024H63.132z M54.553,15.917l-10.841,17.23
	L33.209,15.264L43.676,3.162L54.553,15.917z M8.332,42.809l23.531-26.597L42.083,33.92l-10.691-0.317l-7.229,9.205H8.332z
	 M2.912,75.691l20.857-27.88l18.666,49.384L2.912,75.691z"/>
</svg>
