<?xml version="1.0" encoding="utf-8"?>
<!-- Generator: Adobe Illustrator 16.0.0, SVG Export Plug-In . SVG Version: 6.00 Build 0)  -->
<!DOCTYPE svg PUBLIC "-//W3C//DTD SVG 1.1//EN" "http://www.w3.org/Graphics/SVG/1.1/DTD/svg11.dtd">
<svg version="1.1" id="Layer_2" xmlns="http://www.w3.org/2000/svg" xmlns:xlink="http://www.w3.org/1999/xlink" x="0px" y="0px"
	 width="77.438px" height="89.203px" viewBox="0 10.703 77.438 89.203" enable-background="new 0 10.703 77.438 89.203"
	 xml:space="preserve">
<path opacity="0.5" d="M77.438,79.345l-19.822-27.74h16.266L39.008,10.703L3.631,51.604h16.642L0,78.777l38.831,21.129
	L77.438,79.345z M49.093,42.851l5.475,7.878L38.942,94.702L22.759,51.733l6.15-8.616L49.093,42.851z M40.505,96.488l15.737-43.081
	l18.08,25.112L40.505,96.488z M56.799,49.613l-6.696-8.929l-8.929,0.223l8.817-14.062l19.196,22.768H56.799z M48.652,25.17
	l-9.623,15.128l-9.016-15.575l9.04-10.714L48.652,25.17z M8.473,49.613l19.978-23.215l8.371,14.509l-8.792-0.201l-6.609,8.907H8.473
	z M3.115,78.073l18.081-24.107L37.38,96.823L3.115,78.073z"/>
</svg>
