<?xml version="1.0" encoding="utf-8"?>
<!-- Generator: Adobe Illustrator 16.0.0, SVG Export Plug-In . SVG Version: 6.00 Build 0)  -->
<!DOCTYPE svg PUBLIC "-//W3C//DTD SVG 1.1//EN" "http://www.w3.org/Graphics/SVG/1.1/DTD/svg11.dtd">
<svg version="1.1" id="Layer_2" xmlns="http://www.w3.org/2000/svg" xmlns:xlink="http://www.w3.org/1999/xlink" x="0px" y="0px"
	 width="86.729px" height="99.906px" viewBox="0 0 86.729 99.906" enable-background="new 0 0 86.729 99.906" xml:space="preserve">
<path opacity="0.5" d="M86.729,76.878l-22.2-31.069h18.217L43.688,0L4.067,45.809h18.639L0,76.242l43.49,23.664L86.729,76.878z
	 M54.984,36.005l6.131,8.823l-17.5,49.25L25.49,45.953l6.889-9.65L54.984,36.005z M45.365,96.078l17.625-48.25l20.25,28.125
	L45.365,96.078z M63.615,43.578l-7.5-10l-10,0.25l9.875-15.75l21.5,25.5H63.615z M54.49,16.203L43.712,33.147L33.615,15.703
	l10.125-12L54.49,16.203z M9.49,43.578l22.375-26l9.375,16.25l-9.848-0.225l-7.402,9.975H9.49z M3.49,75.453l20.25-27l18.125,48
	L3.49,75.453z"/>
</svg>
