<?xml version="1.0" encoding="utf-8"?>
<!-- Generator: Adobe Illustrator 16.0.0, SVG Export Plug-In . SVG Version: 6.00 Build 0)  -->
<!DOCTYPE svg PUBLIC "-//W3C//DTD SVG 1.1//EN" "http://www.w3.org/Graphics/SVG/1.1/DTD/svg11.dtd">
<svg version="1.1" id="Layer_1" xmlns="http://www.w3.org/2000/svg" xmlns:xlink="http://www.w3.org/1999/xlink" x="0px" y="0px"
	 width="488px" height="92.35px" viewBox="0 0 488 92.35" enable-background="new 0 0 488 92.35" xml:space="preserve">
<g>
	<line fill="none" stroke="#D1C099" stroke-miterlimit="10" x1="146.697" y1="49.897" x2="226" y2="12.769"/>
	<line fill="none" stroke="#D1C099" stroke-miterlimit="10" x1="226" y1="70.769" x2="151.241" y2="50.547"/>
	<path fill="#FFFFFF" d="M18.175,46.016l23.368-4.544l16.877-8.438c0,0,84.328,15.005,92.821,17.513
		c5.192,0.662,31.157,9.1,31.157,9.1l-16.877,1.947l-19.473-5.842c0,0-61.016,16.228-83.086,14.28
		c-8.438,0-18.175,0.162-18.175,0.162l-22.556-5.68C22.232,64.515-5.193,50.56,18.175,46.016z"/>
	<polygon fill="#E5E5E5" points="14.71,59.745 20.934,64.191 43.977,70.195 81.301,71.169 146.986,56.034 134.777,52.124
		129.01,52.507 83.41,59.972 	"/>
	<path fill="#FFFFFF" d="M28.561,46.016L0,21.999c0,0,7.303-8.276,23.043,3.57c7.465,5.842,23.043,16.552,23.043,16.552
		L28.561,46.016z"/>
	<path fill="#FFFFFF" d="M53.875,68.085c0,0,13.632-3.895,25.316-3.895c12.981,5.193,85.682,25.314,85.682,25.314
		s-16.066,5.68-35.053,0C110.997,83.664,53.875,68.085,53.875,68.085z"/>
	<path fill="#FFFFFF" d="M119.436,44.556c0,0,8.763,3.408,21.42-14.118c4.057-1.947,3.895-12.982,18.824-9.737
		c-4.543,9.088-12.982,29.197-12.982,29.197L119.436,44.556z"/>
	<path fill="#6AB3DB" d="M128.738,89.172l14.605-5.696l21.529,6.029C164.873,89.505,147.289,95.654,128.738,89.172z"/>
	<path fill="#6AB3DB" d="M19.594,23.202c0,0-12.367-1.112-12.979,4.36C5.12,26.305,0,21.999,0,21.999S7.252,14.233,19.594,23.202z"
		/>
	<path fill="#6AB3DB" d="M135.691,36.636c3.866-2.466,9.221-22.75,23.988-15.935c-1.365,2.812-8.643,19.039-8.643,19.039
		L135.691,36.636z"/>
	<polygon fill="#509ABA" points="134.777,37.665 135.691,36.636 151.037,39.739 150.285,41.48 	"/>
	<path fill="#509ABA" d="M13.17,58.573c0,0,65.184,1.508,71.051,0.75c3.896-0.873,48.902-7.708,48.902-7.708l2.568,0.51
		l-50.658,9.47c0,0-69.27,0.749-69.367-1.093L13.17,58.573z"/>
	<path fill="#C8D2D6" d="M45.156,41.48l13.75-6.478c0,0,5.355,2.517,5.193,4.737c-0.325,0.597-2.109,8.548-2.109,8.548
		S45.525,46.031,45.156,41.48z"/>
	<path fill="#C8D2D6" d="M66.047,39.739l-1.944,8.548c0,0,11.681,1.948,15.899,0c0.162-1.46,0-6.642,0-6.642
		S65.234,40.765,66.047,39.739z"/>
	<path fill="#C8D2D6" d="M82,41.472v7.14c0,0,8.008-0.162,9.306-1.298c0-0.974-1.569-5.668-1.569-5.668S83,42.284,82,41.472z"/>
	<path opacity="0.5" fill="#E5E5E5" d="M53.875,68.085l74.863,21.087c0,0,10.426,4.283,21.041,2.904
		c-3.568-0.461-94.077-24.478-94.077-24.478L53.875,68.085z"/>
	<path opacity="0.3" fill="#E5E5E5" d="M1.156,21.044c0,0,8.029-6.903,19.908,3.111c3.39,2.502,22.571,16.271,22.571,16.271
		l-2.981,1.22l-11.932,2.099L1.156,21.044z"/>
	<polygon fill="#E5E5E5" points="167.302,61.389 165.521,61.594 127.549,49.897 128.738,49.153 	"/>
	<rect x="226" y="12.769" fill="#FEBF97" width="196" height="58"/>
	<polygon fill="#FEBF97" points="395,1.769 395,60.769 488,60.769 465,31.269 488,1.769 	"/>
	<polygon fill="#EAAF8F" points="395,1.769 422,12.769 395,12.769 	"/>
	<g>
		<path fill="#8C473B" d="M308.431,49.528v-13.26h0.895v5.792h8.005v-5.792h0.894v13.26h-0.894V42.91h-8.005v6.619H308.431z"/>
		<path fill="#8C473B" d="M321.087,36.269h0.895v1.364h-0.895V36.269z M321.087,49.528v-9.525h0.895v9.525H321.087z"/>
		<path fill="#8C473B" d="M324.843,48.165h1.118v1.364h-1.118V48.165z M325.961,36.269v4.427l-0.335,5.098h-0.425l-0.335-5.098
			v-4.427H325.961z"/>
		<path fill="#8C473B" d="M335.979,36.269h0.895v1.364h-0.895V36.269z M335.979,49.528v-9.525h0.895v9.525H335.979z"/>
		<path fill="#8C473B" d="M340.338,49.26c-0.343-0.387-0.514-0.864-0.514-1.431v-7.133h-1.364v-0.693h1.364v-2.706h0.895v2.706
			h1.297v0.693h-1.297v7.133c0,0.373,0.097,0.693,0.291,0.961c0.179,0.268,0.402,0.402,0.671,0.402c0.283,0,0.514-0.052,0.693-0.156
			v0.648c-0.328,0.119-0.581,0.179-0.76,0.179C341.121,49.864,340.696,49.663,340.338,49.26z"/>
		<path fill="#8C473B" d="M344.05,39.489c0.164,0,0.298-0.104,0.402-0.313c0.119-0.223,0.179-0.484,0.179-0.782v-1.096h-0.671
			v-1.364h1.297v2.371c0,0.462-0.097,0.864-0.291,1.207c-0.209,0.328-0.455,0.492-0.738,0.492L344.05,39.489z"/>
		<path fill="#8C473B" d="M348.41,48.88c-0.715-0.596-1.073-1.319-1.073-2.169h0.827c0,0.641,0.276,1.193,0.828,1.655
			c0.551,0.447,1.215,0.671,1.99,0.671c0.895,0,1.618-0.202,2.169-0.604c0.537-0.417,0.805-0.961,0.805-1.632
			c0-0.506-0.283-0.939-0.85-1.297c-0.567-0.343-1.327-0.559-2.281-0.648c-1.014-0.089-1.819-0.373-2.415-0.85
			c-0.611-0.477-0.917-1.065-0.917-1.767c0-0.79,0.305-1.401,0.917-1.833c0.611-0.432,1.468-0.648,2.571-0.648
			c1.059,0,1.901,0.231,2.527,0.693c0.641,0.462,0.961,1.081,0.961,1.856h-0.85c-0.104-0.582-0.388-1.036-0.85-1.364
			c-0.462-0.328-1.059-0.492-1.789-0.492c-0.805,0-1.446,0.164-1.923,0.492c-0.477,0.328-0.715,0.76-0.715,1.297
			c0,0.507,0.291,0.939,0.872,1.297c0.566,0.343,1.327,0.559,2.281,0.648c0.999,0.089,1.803,0.388,2.415,0.895
			c0.596,0.507,0.895,1.141,0.895,1.901c0,0.85-0.351,1.528-1.051,2.035c-0.686,0.507-1.61,0.76-2.773,0.76
			C349.968,49.774,349.111,49.476,348.41,48.88z"/>
		<path fill="#8C473B" d="M364.04,49.528v-9.525h0.895v1.61c0.268-0.566,0.648-1.014,1.14-1.342
			c0.492-0.343,1.021-0.514,1.587-0.514c0.671,0,1.26,0.179,1.767,0.537c0.521,0.373,0.857,0.842,1.006,1.409
			c0.283-0.596,0.708-1.065,1.274-1.409c0.582-0.358,1.215-0.537,1.901-0.537c0.85,0,1.58,0.291,2.191,0.872
			c0.596,0.582,0.895,1.282,0.895,2.102v6.797h-0.895v-6.797c0-0.626-0.216-1.163-0.648-1.61c-0.417-0.447-0.932-0.671-1.542-0.671
			c-0.701,0-1.327,0.246-1.878,0.738c-0.552,0.492-0.895,1.118-1.029,1.878v6.462h-0.894v-6.797c0-0.626-0.202-1.163-0.604-1.61
			c-0.402-0.447-0.887-0.671-1.453-0.671c-0.671,0-1.275,0.261-1.812,0.783c-0.522,0.537-0.857,1.207-1.006,2.012v6.283H364.04z"/>
		<path fill="#8C473B" d="M380.005,48.478c-0.775-0.939-1.163-2.176-1.163-3.712c0-1.535,0.388-2.773,1.163-3.712
			c0.775-0.924,1.804-1.386,3.086-1.386c1.282,0,2.311,0.425,3.086,1.274c0.775,0.85,1.163,1.983,1.163,3.399v0.425h-7.603
			c0,1.297,0.305,2.333,0.917,3.108c0.611,0.775,1.424,1.163,2.438,1.163c0.76,0,1.446-0.202,2.057-0.604
			c0.626-0.417,1.058-0.961,1.297-1.632h0.895c-0.149,0.88-0.626,1.61-1.431,2.191s-1.744,0.872-2.817,0.872
			C381.809,49.864,380.78,49.402,380.005,48.478z M386.445,43.916v-0.335c-0.075-0.879-0.433-1.625-1.073-2.236
			c-0.656-0.596-1.417-0.894-2.281-0.894c-0.865,0-1.618,0.306-2.258,0.917c-0.656,0.626-1.021,1.394-1.096,2.303v0.246H386.445z"/>
	</g>
	<path fill="#F2D5CC" d="M271.055,30.234c0,5.985-2.873,9.706-7,9.706s-6.596-4.851-6.596-10.835s2.469-10.836,6.596-10.836
		S271.055,24.25,271.055,30.234z"/>
	<path fill="#F2D5CC" d="M261.738,38.695c0,0,2.16,6.403-2.417,7.957c0,0-9.931,3.108-9.919,14.736l14.814-0.227l14.826-0.615
		c-2.588-11.962-10.818-13.937-10.818-13.937s-3.924-1.512-1.459-7.915H261.738z"/>
	<g>
		<defs>
			<path id="SVGID_1_" d="M248.658,67.023c0,0-1.177-13.439,7.616-18.836c0.448,0.441,9.812,6.027,14.78-0.265
				c-0.014,0,8.344,4.361,9.52,19.102C278.268,67.023,248.658,67.023,248.658,67.023z"/>
		</defs>
		<clipPath id="SVGID_2_">
			<use xlink:href="#SVGID_1_"  overflow="visible"/>
		</clipPath>
		<circle clip-path="url(#SVGID_2_)" fill="#F7F9F7" cx="262.515" cy="33.511" r="33.511"/>
	</g>
	<g>

			<ellipse transform="matrix(0.997 -0.0772 0.0772 0.997 -1.357 20.386)" fill="#FFFFFF" cx="263.141" cy="27.755" rx="1.579" ry="0.647"/>

			<ellipse transform="matrix(0.9999 -0.0133 0.0133 0.9999 -0.3456 3.5759)" fill="#FFFFFF" cx="267.813" cy="27.692" rx="1.519" ry="0.726"/>
		<ellipse fill="#120E0B" cx="263.216" cy="27.799" rx="0.409" ry="0.523"/>
		<ellipse fill="#120E0B" cx="267.909" cy="27.799" rx="0.409" ry="0.523"/>
	</g>
	<path fill="#4E78A5" d="M249.037,60.487c0,0,15.565,8.328,30.188-0.909l0.654,2.601c0,0-12.799,9.491-31.248,1.841
		C248.801,62.378,249.037,60.487,249.037,60.487z"/>
	<path fill="#4E78A5" d="M249.561,57.672c0,0,14.657,8,28.704-0.808l0.671,1.904c0,0-11.736,9.17-29.781,1.012
		C249.464,58.258,249.561,57.672,249.561,57.672z"/>
	<path fill="#4E78A5" d="M250.237,55.567c0,0,14.661,7.52,27.013-0.848l0.637,1.329c0,0-10.079,8.679-28.126,0.969
		C250.086,55.768,250.237,55.567,250.237,55.567z"/>
	<path fill="#8C473B" d="M261.564,16.253c0,0-3.602-0.689-5.029,2.726c-0.421,0.953-1.037,1.457-1.597,0.56
		c-0.112,0.056,0.421,2.072,1.344,0.84c-0.252,0.728-1.903,0.56-1.186,0.728c0.795,0.28-1.345,1.292,0,3.734
		c1.091,1.597,2.362,5.854,2.362,6.302c0,0.448,1.205-1.856,1.205-1.856s0.506,1.841,0.24,2.348
		c-0.041,0.003,1.344-2.53,1.064-4.359c-0.051-1.293-1.007-5.021,0.84-5.832c0.164-0.073,0.756,1.456,1.791,1.344
		c2.083,0.784,7.279-2.127,7.896,2.967c0.099,0.322,0.264,0.611,0.456,0.863c0.579,0.756,1.405,0.48,1.405,0.48
		s-1.302-1.105-0.56-2.827c0.28-0.896,1.219-3.857-0.91-6.002c-0.615-0.465-9.967-4.329-8.902-1.305
		C261.65,16.74,261.564,16.253,261.564,16.253z"/>
	<path fill="#F2D5CC" d="M258.943,29.287c0,0-2.464-2.127-2.408,2.296c0.057,0.056,0.504,2.744,1.904,1.68
		C258.439,33.15,258.943,29.287,258.943,29.287z"/>
</g>
</svg>
