
<svg version="1.1" id="sep" xmlns="http://www.w3.org/2000/svg" xmlns:xlink="http://www.w3.org/1999/xlink"
  preserveAspectRatio="xMinYMin meet" width="100%"
	viewBox="0 0 1023.305 23.552">
<path fill="#1565C0" d="M1022.688,0h-35.908h-0.615h-35.908h-0.617H913.73h-0.617h-35.907h-0.616h-35.908h-0.617h-35.907h-0.617
	h-35.907h-0.617h-35.907h-0.617h-35.907h-0.617h-35.908h-0.616h-35.907h-0.617H585.01h-0.617h-35.906h-0.617h-35.908h-0.617h-35.908
	h-0.617h-35.908h-0.617h-35.908h-0.617h-35.907h-0.617h-35.908h-0.617h-35.908h-0.617h-35.907h-0.617h-35.908h-0.617H183.24h-0.617
	h-35.907h-0.617H110.19h-0.617H73.666h-0.617H37.142h-0.617H0c0,30,33.387,31.057,36.833,4.688
	c3.256,24.918,33.236,25.019,36.524,0.134c3.289,24.885,33.269,24.904,36.525-0.014c3.256,24.918,33.236,24.959,36.524,0.074
	c3.289,24.885,33.269,24.875,36.524-0.043c3.256,24.918,33.236,24.943,36.525,0.059c3.289,24.885,33.268,24.866,36.524-0.051
	c3.256,24.917,33.236,24.94,36.524,0.055c3.289,24.885,33.269,24.865,36.524-0.053c3.256,24.917,33.236,24.939,36.525,0.054
	c3.289,24.885,33.268,24.865,36.524-0.053c3.256,24.918,33.236,24.938,36.524,0.054c3.289,24.885,33.269,24.864,36.525-0.054
	c3.256,24.918,33.235,24.938,36.524,0.054c3.289,24.885,33.268,24.864,36.524-0.054c3.257,24.918,33.235,24.938,36.524,0.054
	c3.289,24.885,33.269,24.864,36.524-0.054c3.257,24.918,33.236,24.938,36.524,0.054c3.29,24.885,33.269,24.864,36.525-0.054
	c3.257,24.918,33.235,24.938,36.523,0.054c3.29,24.885,33.269,24.864,36.525-0.054c3.257,24.918,33.235,24.938,36.525,0.054
	c3.288,24.885,33.267,24.864,36.523-0.054c3.257,24.918,33.235,24.938,36.525,0.054c3.289,24.885,33.268,24.864,36.524-0.054
	c3.257,24.918,33.235,24.938,36.524,0.054c3.289,24.885,33.268,24.864,36.524-0.054c3.257,24.918,33.235,24.778,36.524-0.106
	c0.309-2.52,0.309-4.742,0.309-4.742H1022.688z"/>
</svg>
