<?xml version="1.0" encoding="utf-8"?>
<!-- Generator: Adobe Illustrator 16.0.0, SVG Export Plug-In . SVG Version: 6.00 Build 0)  -->
<!DOCTYPE svg PUBLIC "-//W3C//DTD SVG 1.1//EN" "http://www.w3.org/Graphics/SVG/1.1/DTD/svg11.dtd">
<svg version="1.1" id="Layer_1" xmlns="http://www.w3.org/2000/svg" xmlns:xlink="http://www.w3.org/1999/xlink" x="0px" y="0px"
	 width="480px" height="640px" viewBox="0 0 480 640" enable-background="new 0 0 480 640" xml:space="preserve">
<rect y="-1" fill="#98C8C6" width="480" height="641"/>
<g>
	<g>
		<path fill="#E9E7E4" d="M49.364,103.751c0,0-1.985-27.675,17.396-22.801c1.075,1.218-2.567-30.159,14.662-25.285
			c1.076,1.219,18.92-10.029,27.537-10.029c0-1.219,29.228-9.141,42.149,5.48c2.153,2.438,21.398-4.3,37.547,10.323
			c2.156-1.219,27.256,19.532,10.026,21.704c0,2.17,8.034,13.784,3.336,24.751c-0.171-0.536,6.256,2.537,3.798,8.902
			c-2.675,6.934,10.44,13.887,4.28,17.18c-2.657,1.42,2.08,7.421-0.798,9.339c-0.252-0.49-5.131,3.684-0.632,7.309
			c5.131,4.131-3.236,12.645-0.317,15.079c4.938,4.114-1.733,9.854-4.112,10.237c0,0.449-12.563,9.492-6.015,8.865
			c0.988-0.096-5.52,12.296-6.331,10.127c-1.868-5.006-9.9,4.225-12.066,1.773c-0.593,0.675-7.559,6.457-15.5,4.061
			c-6.478-1.953-11.354,4.611-12.796-0.834c0-0.557-14.077,5.122-16.926,1.966c-3.478-3.854-7.914-0.635-10.625,2.622
			c-1.545,1.854-4.466-1.577-6.054-3.572c-0.097,3.858-2.195,0.334-5.564,1.164c-3.368,0.835-9.098,2.694-13.528-1.483
			c-3.492-3.292-9.179,6.333-12.662,1.899c-4.276-5.445-11.279,0.219-7.737-7.797c-1.078,2.438-19.547,2.861-16.316-2.016
			c0,0-4.521-2.766-6.647-9.178c-0.734-2.217,6.165-6.346,2.849-6.646c-6.964-0.635-6.964-6.6-6.964-6.6
			c-1.044-3.721,1.849-8.042,0.632-9.229c-3.898-3.811,1.899-8.229,1.899-8.229c-10.241-17.378,2.943-11.251-0.317-13.612
			c-8.299-6.012-0.632-8.546-0.632-8.546c-5.382-3.48-4.451-11.854-1.584-13.879C52.428,116.797,38.668,105.32,49.364,103.751z"/>
		<path fill="#363A38" stroke="#383133" stroke-miterlimit="10" d="M169.729,126.14c6.647,34.924-17.006,44.152-37.981,44.152
			c-37.981,0-37.981-19.768-37.981-44.152c0-5.738-11.58-28.568,37.981-38.189C170.87,80.354,165.169,102.185,169.729,126.14z"/>
		<path fill="#A1CBB1" d="M105.17,106.218c0,0,48.792-21.668,53.792-14.483c0.92,0.237,11.428,35.341,7.441,43.132
			c0.716-2.756-23.549,11.549-26.532,7.829C140.527,143.847,105.17,106.218,105.17,106.218z"/>
		<path fill="#EECBB4" d="M104.199,109.79c0,0,30.162,37.296,35.554,34.643c0,0,15.566,0.043,18.798-4.796
			c0.193,0.601,17.073-1.196,5.115,10.188c0.704,0-15.811,17.017-17.225,15.817c1.398,0-16.573-6.117-18.517-1.324
			c-0.538,0-21.937,4.234-24.042-2.436C103.178,161.206,85.208,108.592,104.199,109.79z"/>
		<path fill="#EECBB4" d="M43.31,87.393c0,0,35.782-59.709,101.774-46.891c0-0.475,61.676,7.486,71.171,46.891
			c-0.474,0.475-11.806,16.01-11.806,16.01s-21.428-60.022-67.432-51.031c-0.479,0-68.89,3.797-79.334,47.951
			C57.682,100.322,36.14,96.845,43.31,87.393z"/>
		<path fill="#F1DACD" d="M60.201,92.721c0,0-4.677-16.055,0-25.591c0.343-0.33,3.179-2.941,3.179-2.941s-2.682,23.511,0,22.228
			C63.426,86.601,60.201,92.721,60.201,92.721z"/>
		<path fill="#F1DACD" d="M72.491,75.884c0,0-2.347-12.391,2.331-20.749C75.165,54.845,78,52.556,78,52.556s-2.681,20.609,0,19.483
			C78.047,72.202,72.491,75.884,72.491,75.884z"/>
		<path fill="#F1DACD" d="M92.099,63.502c0,0-1.673-10.021,3.002-18.38c0.343-0.29,4.905-2.287,4.905-2.287
			s-8.193,16.615-1.724,18.146C98.283,59.935,92.099,63.502,92.099,63.502z"/>
		<path fill="#F1DACD" d="M49.778,78.455c0,0-1.732,19.334,1.32,20.219c-0.282-0.096-6.689-3.27-6.689-3.27
			s0.184-10.013,0.858-10.973C45.134,84.627,49.778,78.455,49.778,78.455z"/>
		<path fill="#F1DACD" d="M118.29,39.103c0,0-11.634,5.4-7.835,17.049c0.462,0.638,6.438-0.803,6.438-0.803
			s-4.071-10.767,7.091-16.604C123.776,38.751,118.29,39.103,118.29,39.103z"/>
		<path fill="#F1DACD" d="M127.462,53.416c0,0-6.755-12.697,7.464-14.349c-0.062-0.005,4.487,0,4.487,0s-14.655,0.619-7.683,13.489
			C131.406,52.891,127.462,53.416,127.462,53.416z"/>
		<path fill="#F1DACD" d="M142.75,51.595c0,0-6.537-11.533,4.084-10.957c0.126,0.017,3.966,0.632,3.966,0.632
			s-9.961-0.659-4.026,10.325C146.536,51.462,142.75,51.595,142.75,51.595z"/>
		<path fill="#F1DACD" d="M156.088,52.556c0,0-4.802-11.713,3.202-9.423c-0.278-0.07,1.963-0.297,1.963-0.297
			s-7.07,0.157-3.297,10.188C157.606,52.937,156.088,52.556,156.088,52.556z"/>
		<path fill="#F1DACD" d="M167.947,56.314c0,0-3.88-12.743,5.437-8.785c-0.146-0.053,1.052,0.401,1.052,0.401
			s-8.224-1.282-4.768,10.125C170.052,58.281,167.947,56.314,167.947,56.314z"/>
		<path fill="#F1DACD" d="M178.124,64.188c0,0-0.837-16.208,7.645-11.165c-0.123-0.064,0.752,0.393,0.752,0.393
			s-7.7-2.471-6.749,12.248C179.77,63.291,178.124,64.188,178.124,64.188z"/>
		<path fill="#F1DACD" d="M185.058,71.05c0,0-0.392-18.527,10.334-12.194c-0.103-0.067,2.282,1.69,2.282,1.69
			s-8.911-3.036-11.153,12.198C186.349,72.534,185.058,71.05,185.058,71.05z"/>
		<path fill="#F1DACD" d="M194.323,83.422c0,0,1.351-22.913,11.441-15.469c-0.366-0.4,3.825,4.791,3.825,4.791
			s-8.426-3.263-12.714,14.887C196.919,87.708,194.323,83.422,194.323,83.422z"/>
		<path fill="#F1DACD" d="M200.946,95.323c0,0,6.724-20.517,14.375-11.199c-0.091-0.286,0.933,3.269,0.933,3.269
			s-15.155,3.01-12.771,13.564C203.483,100.953,200.946,95.323,200.946,95.323z"/>
		<path fill="#F1DACD" d="M106.717,112.854c0,0-14.167,8.833,2.974,48c0.05,0-9.938-24.596-0.909-45.532
			C108.704,115.228,106.717,112.854,106.717,112.854z"/>
		<path fill="#F1DACD" d="M112.414,120.74c0,0-14.166,7.818,2.976,42.489c0.049,0-9.939-21.772-0.909-40.303
			C114.4,122.843,112.414,120.74,112.414,120.74z"/>
		<path fill="#E9E7E4" d="M139.414,163.229c0,0,16.907-11.632,18.542-16.379c-0.026,0.236,3.297,0,3.297,0l-17.382,17.739
			L139.414,163.229z"/>
		<path fill="#84A991" d="M105.17,106.218c0,0,47.744-20.918,53.792-14.483l2.292,6.342
			C161.253,98.077,117.062,101.354,105.17,106.218z"/>
	</g>
	<g>
		<path fill="#363A38" stroke="#383133" stroke-miterlimit="10" d="M253.742,120.975c-3.973-85.822,16.392-77.129,90.12-78.372
			c84.774-1.428,84.965,19.975,84.965,78.727c0,47.319,22.849,78.976-86.176,85.325
			C241.367,212.556,256.905,189.312,253.742,120.975z"/>
		<path fill="#E9E7E4" d="M424.864,154.446c0,0,5.673,13.13-2.495,16.307c-4.471,1.738,0.733,11.188-6.263,9.43
			c-0.545-0.616-3.92,0.923-7.104,7.502c-3.725,7.698-12.356,9.041-21.649,6.411c-0.563-0.635-11.216,8.721-15.15,3.478
			c-5.961-7.946-13.659,9.686-20.859,2.485c-5.215,9.188-16.968,0.453-18.874,0c-5.215-1.242-13.806,6.728-18.875,0.991
			c-0.904-1.023-10.182,6.175-16.639-0.991c-4.312-4.785-10.43,7.166-13.088-0.673c-1.739-5.123-13.733-0.569-13.733-8.765
			c-2.255,1.275-13.714-8.197-4.471-16.392c0-2.271-7.896-9.638-2.981-21.11c0.18,0.561-4.065-5.66-1.496-12.318
			c2.801-7.254-7.928-11.304-1.482-14.75c2.779-1.487-3.757-10.415-0.745-12.418c0.264,0.512,3.954-4.432-0.753-8.221
			c-5.371-4.323,3.386-13.231,0.33-15.779c-5.16-4.303,2.154-18.067,4.645-18.469c0-0.47,0.125-4.471,0.744-7.45
			c0.209-1.017,5.037-11.193,7.451-11.425c4.921-0.47,10.059-5.215,15.521-2.483c0.622-0.706,6.717-2.011,15.025,0.496
			c6.777,2.045,15.646-6.332,20.737-1.365c0,0.582,12.045-2.93,15.026,0.372c3.636,4.032,6.283,3.122,9.119-0.284
			c1.616-1.941,3.259,3.898,7.146-0.212c6.331-3.104,5.005,2.728,8.53,1.857c3.524-0.872,8.813-5.978,13.446-1.608
			c3.656,3.442,8.568,1.861,9.934,1.117c1.075-0.585,5.215-3.104,9.776,4.209c1.125-2.55,14.562-3.215,17.792,4.607
			c0,0,0.856-0.024,3.08,6.686c0.769,2.321-1.955,7.901,1.513,8.215c7.286,0.663,5.836,11.424,5.836,11.424
			c-0.321,4.032-3.011,7.926-1.738,9.167c4.08,3.989-1.104,7.828-1.104,7.828c10.716,18.18-2.781,11.762,0.631,14.231
			c8.683,6.291,1.082,11.095,1.082,11.095c5.63,3.644,3.055,11.039,0.055,13.16C421.659,140.8,432.055,150.636,424.864,154.446z"/>
		<path fill="#EECBB4" d="M376.325,151.164c0,0,0-58.5-7.859-60.796c0,0.763-45.983-9.559-53.45,0
			c-0.393,1.148-28.297,51.667,1.179,63.523C324.863,157.589,376.618,166.439,376.325,151.164z"/>
		<path fill="#F1DACD" d="M370.721,90.085c0,0,5.757,65.808-9.163,63.602c0.018,0.003-2.876,0.055-2.876,0.055
			s11.611-4.469,8.688-64.388C367.657,89.417,370.721,90.085,370.721,90.085z"/>
		<path fill="#F1DACD" d="M303.287,138.035c0,0,8.391-41.939,13.26-38.74c0,0-11.439,46.842-7.685,52.139
			C308.715,151.386,303.287,138.035,303.287,138.035z"/>
		<path fill="#F1DACD" d="M363.972,89.743c0,0-0.531,69.39-10.677,57.671c-0.157-0.015-1.155-5.781-1.155-5.781
			s4.539,9.171,9.376-49.605C361.38,91.689,363.972,89.743,363.972,89.743z"/>
	</g>
	<g>
		<path fill="#363A38" stroke="#383133" stroke-miterlimit="10" d="M221.663,327.292c3.996,86.292-16.479,77.553-90.61,78.8
			c-85.237,1.437-85.428-20.085-85.428-79.155c0-47.578-22.974-79.406,86.646-85.79
			C234.102,235.214,218.482,258.585,221.663,327.292z"/>
		<path fill="#E9E7E4" d="M49.608,293.641c0,0-5.704-13.202,2.508-16.396c4.495-1.748-0.736-11.25,6.298-9.482
			c0.548,0.621,4.801,0.408,8.004-6.207c3.745-7.74,11.562-10.426,20.907-7.781c0.565,0.64,11.274-8.768,15.23-3.496
			c5.994,7.99,13.735-9.739,20.976-2.497c5.243-9.239,17.06-0.457,18.977,0c5.244,1.249,13.881-6.766,18.979-0.999
			c0.908,1.03,10.237-6.207,16.729,0.999c4.335,4.811,10.487-7.206,13.16,0.675c1.746,5.152,13.808,0.574,13.808,8.813
			c2.265-1.28,13.784,8.239,4.494,16.48c0,2.285,7.938,9.688,2.997,21.227c-0.18-0.566,4.089,5.691,1.504,12.382
			c-2.814,7.296,7.969,11.366,1.492,14.833c-2.798,1.494,3.773,10.469,0.749,12.486c-0.267-0.516-3.977,4.455,0.756,8.263
			c5.397,4.347-3.405,13.305-0.334,15.864c5.192,4.326-2.166,18.165-4.667,18.57c0,0.473-0.125,4.495-0.749,7.492
			c-0.214,1.022-5.066,11.252-7.49,11.486c-4.951,0.472-10.113,5.244-15.606,2.497c-0.628,0.706-6.754,2.021-15.107-0.5
			c-6.815-2.056-15.731,6.368-20.85,1.374c0-0.586-12.11,2.945-15.107-0.375c-3.66-4.055-6.32-3.141-9.173,0.284
			c-1.624,1.951-3.277-3.917-7.183,0.216c-6.366,3.121-5.035-2.742-8.579-1.869c-3.542,0.877-8.86,6.012-13.519,1.619
			c-3.676-3.465-8.614-1.873-9.989-1.124c-1.08,0.589-5.243,3.122-9.828-4.232c-1.131,2.562-14.643,3.233-17.889-4.632
			c0,0-0.861,0.023-3.097-6.723c-0.772-2.334,1.966-7.943-1.522-8.259c-7.324-0.668-5.868-11.487-5.868-11.487
			c0.324-4.053,3.027-7.971,1.748-9.219c-4.101-4.007,1.11-7.869,1.11-7.869c-10.774-18.279,2.795-11.826-0.634-14.309
			c-8.729-6.324-1.089-11.154-1.089-11.154c-5.659-3.663-3.07-11.1-0.054-13.234C52.831,307.359,42.378,297.472,49.608,293.641z"/>
		<path fill="#E0C0AE" d="M98.309,290.949c0,0,0,58.816,7.903,61.126c0-0.77,46.233,9.609,53.74,0
			c0.396-1.156,4.914-42.523-24.383-35.605C126.855,312.751,98.015,275.59,98.309,290.949z"/>
		<path fill="#EECBB4" d="M98.411,296.942c0,0,0,58.816,7.903,61.125c0-0.768,46.233,9.609,53.74,0
			c0.396-1.155,4.914-42.522-24.383-35.605C126.957,318.744,98.116,281.582,98.411,296.942z"/>
		<path fill="#7DAA88" d="M110.368,287.532c0,0,0,10.655,4.659,11.317c4.661,0.668,7.188,0,8.588-5.66
			C125.016,287.532,110.368,287.532,110.368,287.532z"/>
		<polygon fill="#7DAA88" points="121.558,295.663 121.558,306.982 130.214,306.982 132.877,295.663 		"/>
		<path fill="#7DAA88" d="M129.471,308.475c0,0,1.512,10.737,8.227,11.144c0,0.133,11.751-2.953,12.255-3.492
			c0,0-7.554-9.802-9.065-9.264C140.887,306.727,129.471,308.475,129.471,308.475z"/>
		<path fill="#7DAA88" d="M149.267,292.074c0,0-10.47-2.826-13.478,3.191c-0.125-0.055-1.897,11.967-1.604,12.64
			c0,0,11.979-3.097,12.08-4.699C146.389,303.259,149.267,292.074,149.267,292.074z"/>
		<path fill="#96C3A4" d="M154.157,294.878c0,0-10.769,1.295-11.307,7.998c-0.138-0.004,2.717,11.811,3.241,12.325
			c0,0,9.952-7.358,9.444-8.88C155.67,306.325,154.157,294.878,154.157,294.878z"/>
		<path fill="#96C3A4" d="M148.883,313.231c0,0,0,10.655,4.66,11.323c4.661,0.662,7.187-0.004,8.587-5.662
			C163.532,313.231,148.883,313.231,148.883,313.231z"/>
		<path fill="#F1DACD" d="M110.368,358.563c0,0-5.551-52.23-2.888-52.378c-0.667-0.144,9.559,7.046,9.559,7.046L110.368,358.563z"/>
		<path fill="#F1DACD" d="M117.039,359.629c0,0,0.62-34.225,2.522-31.923c0.569-1.69,4.091-0.961,5.659,4.666
			C126.789,333.34,117.039,359.629,117.039,359.629z"/>
		<path fill="#96C3A4" d="M106.757,287.644c0,0,0,10.656,4.661,11.319c4.66,0.667,7.188,0,8.587-5.661
			C121.406,287.644,106.757,287.644,106.757,287.644z"/>
		<polygon fill="#96C3A4" points="118.049,295.663 118.049,306.982 126.705,306.982 129.368,295.663 		"/>
		<path fill="#96C3A4" d="M147.268,293.735c0,0-10.47-2.824-13.479,3.192c-0.125-0.055-1.897,11.966-1.604,12.641
			c0,0,11.98-3.098,12.079-4.701C144.39,304.92,147.268,293.735,147.268,293.735z"/>
		<path fill="#96C3A4" d="M127.217,309.538c0,0,1.513,10.736,8.228,11.142c0,0.133,11.751-2.953,12.254-3.492
			c0,0-7.554-9.801-9.064-9.262C138.634,307.79,127.217,309.538,127.217,309.538z"/>
	</g>
	<g>
		<path fill="#E9E7E4" d="M51.134,494.747c0,0-10.684-35.268,7.275-30.492c0.997,1.197,6.464-21.42,22.426-16.642
			c0.996,1.196,17.529-9.831,25.512-9.831c0-1.192,27.079-8.959,39.048,5.372c1.997,2.391,19.829-4.214,34.791,10.118
			c1.996-1.195,25.251,19.146,9.29,21.274c0,2.126,7.443,13.513,3.089,24.259c-0.158-0.521,5.797,2.492,3.52,8.728
			c-2.479,6.798,9.673,13.611,3.965,16.842c-2.464,1.394,1.928,7.276-0.738,9.155c-0.235-0.483-4.756,3.611-0.588,7.158
			c4.757,4.051-2.997,12.399-0.292,14.785c4.575,4.03-1.607,9.659-3.81,10.037c0,0.44-11.639,9.299-5.575,8.686
			c0.917-0.091-5.112,12.055-5.861,9.93c-1.732-4.908-9.172,4.137-11.18,1.738c-0.549,0.656-7.003,6.326-14.359,3.977
			c-6.003-1.916-10.52,4.52-11.856-0.818c0-0.546-13.045,5.021-15.683,1.927c-3.221-3.777-7.33-0.622-9.843,2.571
			c-1.433,1.817-4.137-1.543-5.608-3.503c-0.09,3.782-2.034,0.329-5.154,1.146c-3.12,0.814-8.43,2.637-12.537-1.457
			c-3.234-3.225-8.501,6.205-11.728,1.861c-3.962-5.336-10.45,0.215-7.169-7.643c-1.001,2.389-18.11,2.805-15.117-1.975
			c0,0-4.189-2.707-6.158-8.997c-0.681-2.173,5.711-6.219,2.64-6.517c-6.454-0.618-6.454-6.466-6.454-6.466
			c-0.966-3.646,1.714-7.883,0.587-9.046c-3.611-3.734,1.759-8.066,1.759-8.066c-9.488-17.035,0.619-10.928-2.402-13.241
			c-7.691-5.896-1.625-8.577-1.625-8.577c-4.986-3.415-2.657-11.979,0-13.965C52.292,507.075,41.224,496.283,51.134,494.747z"/>
		<path fill="#A1CBB1" d="M147.158,487.013c0,0,17.809,46.146,10.932,50.441c-0.264,0.84-33.226,8.951-40.258,4.905
			c2.521,0.79-9.599-22.321-6.022-24.911C110.713,518.001,147.158,487.013,147.158,487.013z"/>
		<path fill="#EECBB4" d="M145.657,487.708c0,0-38.388,26.078-36,31.2c0,0-0.76,14.397,3.89,17.63
			c-0.603,0.147,0.406,15.856-10.34,4.23c-0.033,0.652-16.154-15.469-14.903-16.719c-0.063,1.295,6.831-15.033,2.167-17.067
			c0.024-0.497-3.193-20.507,3.522-22.132C94.692,484.235,147.717,470.196,145.657,487.708z"/>
		<path fill="#F1DACD" d="M142.706,486.378c0,0-7.523-13.514-44.555,0.548c-0.002,0.046,23.217-8.067,42.175,1.251
			C140.417,488.108,142.706,486.378,142.706,486.378z"/>
		<path fill="#F1DACD" d="M135.146,491.81c0,0-6.585-13.469-39.455,0.801c-0.002,0.046,20.605-8.196,37.336,1.011
			C133.108,493.55,135.146,491.81,135.146,491.81z"/>
		<path fill="#F1DACD" d="M94.588,517.842c0,0,9.986,16.18,14.306,17.911c-0.22-0.035-0.151,3.049-0.151,3.049l-15.616-16.899
			L94.588,517.842z"/>
		<path fill="#84A991" d="M147.158,487.013c0,0,17.165,45.141,10.932,50.441l-5.976,1.83
			C152.114,539.284,151.113,498.243,147.158,487.013z"/>
		<path fill="#EECBB4" d="M117.58,430.084c0,0,85.617-8.05,91.864,67.546c2.02,24.415,25.294,107.696-78.083,100.785
			c-54.536-6.396-87.354,10.206-88.704-79.625C43.426,510.13,21.623,430.589,117.58,430.084z M124.66,583.772
			c89.624,14.961,68.297-75.49,68.29-75.987c-7.361-52.239,3.52-58.942-79.399-63.297c-73.015-2.022-60.478,70.36-60.478,70.36
			C52.495,592.454,100.797,579.923,124.66,583.772z"/>
		<path fill="#F1DACD" d="M55.166,479.966c0,0-4.756-18.201-0.423-27.035c0.32-0.306,3.372-3.578,3.372-3.578s-2.486,25.961,0,24.77
			C58.155,474.294,55.166,479.966,55.166,479.966z"/>
		<path fill="#F1DACD" d="M64.884,461.668c0,0-2.176-11.479,2.157-19.224c0.32-0.269,2.948-2.388,2.948-2.388
			s-2.487,17.703-0.001,16.663C70.029,456.869,64.884,461.668,64.884,461.668z"/>
		<path fill="#F1DACD" d="M82.098,448.81c0,0-1.552-7.986,2.783-14.644c0.319-0.232,4.542-1.823,4.542-1.823
			s-7.588,13.24-1.595,14.457C87.827,445.968,82.098,448.81,82.098,448.81z"/>
		<path fill="#F1DACD" d="M46.751,465.209c0,0,4.269,20.685,7.096,21.505c-0.261-0.092-0.926,5.633-0.926,5.633
			s-9.818-17.941-9.189-18.827C43.605,473.7,46.751,465.209,46.751,465.209z"/>
		<path fill="#F1DACD" d="M98.34,444.585c0,0-6.261-12.523,6.915-14.15c-0.048-0.326,4.876-0.664,4.876-0.664
			s-14.296,1.275-7.838,13.965C101.991,444.066,98.34,444.585,98.34,444.585z"/>
		<path fill="#F1DACD" d="M129.981,445.167c0,0-6.059-16.991,3.778-16.141c0.118,0.021,3.675,0.93,3.675,0.93
			s-9.228-0.971-3.729,15.211C133.486,444.972,129.981,445.167,129.981,445.167z"/>
		<path fill="#F1DACD" d="M142.333,445.453c0,0-4.449-17.356,2.966-13.965c-0.258-0.103,1.822-0.438,1.822-0.438
			s-6.55,0.232-3.055,15.096C143.74,446.017,142.333,445.453,142.333,445.453z"/>
		<path fill="#F1DACD" d="M153.321,446.15c0,0-3.595-17.07,5.038-11.771c-0.133-0.071,0.976,0.539,0.976,0.539
			s-7.618-1.717-4.419,13.564C155.272,448.784,153.321,446.15,153.321,446.15z"/>
		<path fill="#F1DACD" d="M165.296,450.106c0,0-0.776-15.016,7.083-10.343c-0.116-0.061,0.695,0.364,0.695,0.364
			s-7.134-2.29-6.255,11.347C166.818,449.275,165.296,450.106,165.296,450.106z"/>
		<path fill="#F1DACD" d="M171.914,451.69c0,0-0.366-10.835,9.574-7.131c-0.094-0.042,2.114,2.004,2.114,2.004
			s-8.255-2.793-10.333,6.118C173.11,452.558,171.914,451.69,171.914,451.69z"/>
		<path fill="#F1DACD" d="M186.552,468.843c0,0,0.788-16.707,6.647-11.28c-0.213-0.292,2.224,3.495,2.224,3.495
			s-4.896-2.382-7.384,10.852C188.062,471.966,186.552,468.843,186.552,468.843z"/>
		<path fill="#F1DACD" d="M190.057,484.536c0,0,6.226-19.01,13.316-10.379c-0.087-0.263,0.865,3.031,0.865,3.031
			s-15.464,4.003-13.25,13.78C190.988,492.698,190.057,484.536,190.057,484.536z"/>
		<path fill="#F1DACD" d="M192.368,503.46c0,0,8.463-12.111,16.063-12.428c-0.086-0.262,0.865,3.031,0.865,3.031
			s-17.755,8.337-15.543,18.113C193.753,513.907,192.368,503.46,192.368,503.46z"/>
		<path fill="#F1DACD" d="M194.787,522.218c0,0,10.496-14.098,16.063-12.428c-0.087-0.262,0.865,3.031,0.865,3.031
			s-18.356,8.531-16.144,18.308C195.571,532.859,194.787,522.218,194.787,522.218z"/>
		<path fill="#F1DACD" d="M41.127,491.348c0,0,9.117,22.681,11.945,23.501c-0.262-0.092-0.151,5.797-0.151,5.797
			s-12.478-17.939-11.849-18.826C40.945,501.999,41.127,491.348,41.127,491.348z"/>
		<path fill="#F1DACD" d="M43.272,533.829c-0.127,0.18,0.055-10.473,0.055-10.473s9.117,22.68,11.945,23.502"/>
		<path fill="#F1DACD" d="M45.103,550.955c0,0,14.595,9.481,17.423,10.304c-0.261-0.094,3.67,5.242,3.67,5.242
			s-20.694-9.361-20.065-10.248C46.004,556.433,45.103,550.955,45.103,550.955z"/>
		<path fill="#F1DACD" d="M79.585,577.303c0,0,9.025,10.702-3.398,15.379c0.124,0.304-5.245-0.399-5.245-0.399
			s15.162-5.479,5.904-16.299C77.751,575.257,79.585,577.303,79.585,577.303z"/>
		<path fill="#F1DACD" d="M70.222,574.203c0,0-3.019,13.671-14.28,6.642c-0.165,0.283-2.869-4.407-2.869-4.407
			s13.564,8.716,16.537-5.21C70.734,571.505,70.222,574.203,70.222,574.203z"/>
		<path fill="#F1DACD" d="M89.795,581.046c0,0,8.697,9.34-3.769,13.84c0.115,0.269-5.202-0.223-5.202-0.223
			s15.209-5.288,6.284-14.728C88.026,579.261,89.795,581.046,89.795,581.046z"/>
		<path fill="#F1DACD" d="M101.306,583.022c0,0,8.504,8.538-3.989,12.934c0.111,0.248-5.175-0.118-5.175-0.118
			s15.235-5.175,6.509-13.803C99.575,581.394,101.306,583.022,101.306,583.022z"/>
		<path fill="#F1DACD" d="M131.396,585.636c0,0,7.839,8.335-3.441,12.389c0.103,0.242-4.703-0.188-4.703-0.188
			s13.764-4.766,5.718-13.188C129.802,584.046,131.396,585.636,131.396,585.636z"/>
		<path fill="#F1DACD" d="M147.671,586.358c0,0,7.838,8.334-3.442,12.389c0.104,0.24-4.702-0.188-4.702-0.188
			s13.763-4.767,5.719-13.187C146.076,584.767,147.671,586.358,147.671,586.358z"/>
		<path fill="#F1DACD" d="M162.754,583.036c0,0,9.501-1.295,1.774,10.572c0.174,0.065-3.917,3.777-3.917,3.777
			s9.494-14.367-0.213-12.954C160.859,583.366,162.754,583.036,162.754,583.036z"/>
		<path fill="#F1DACD" d="M194.787,541.526c0,0,15.741-7.652,18.915-4.036c0.063-0.251-0.799,2.829-0.799,2.829
			s-17.005-0.434-19.99,8.463C192.107,550.197,194.787,541.526,194.787,541.526z"/>
		<path fill="#F1DACD" d="M187.712,562.222c-1.106,1.195,3.478-6.639,3.478-6.639s17.072-3.864,19.338,0.382"/>
		<path fill="#F1DACD" d="M181.034,571.786c-1.402,0.828,5.234-5.364,5.234-5.364s17.464,1.188,18.417,5.903"/>
	</g>
	<g>
		<path fill="#E9E7E4" d="M431.205,520.466c4.063,88.447-16.76,79.486-92.144,80.768c-86.681,1.471-86.875-20.586-86.875-81.132
			c0-48.767-23.36-81.386,88.111-87.935C443.857,426.087,427.973,450.04,431.205,520.466z"/>
		<path fill="#BADFC4" d="M266.271,454.696c0,0,7.406-5.52,9.047-9.241c-0.164-0.28,5.08-2.675,8.688-3.013
			c0-0.38,18.354,1.965,15.896-5.025c0.164,0.22,6.947-0.533,6.678,3.656C306.35,441.11,266.271,454.696,266.271,454.696z"/>
		<path fill="#BADFC4" d="M428.555,519.711c3.933,84.955-16.226,76.351-89.209,77.581c-83.919,1.412-84.108-19.774-84.108-77.932
			c0-46.843-22.616-78.178,85.307-84.463C440.804,429.056,425.424,452.065,428.555,519.711z"/>
		<polygon fill="#A1CBB1" points="380.445,584.015 376.336,597.356 340.976,596.355 357.831,582.905 		"/>
		<path fill="#A1CBB1" d="M253.56,494.55l1.682,34.44c0,0,3.184,17.208,10.395,11.146c0.492,0-0.819-35.676-0.819-35.676
			S254.758,504.687,253.56,494.55z"/>
		<polygon fill="#A1CBB1" points="414.295,480.896 427.822,484.345 428.555,519.711 414.295,503.535 		"/>
		<polygon fill="#C8D5CE" points="414.295,506.107 428.555,507.961 431.687,529.825 414.295,517.567 		"/>
		<path fill="#A1CBB1" d="M311.344,440.375c0,0,2.812,11.183,10.188,10.854c0.329,0.162,5.899,0.007,5.899,0.007
			s-15.034-7.351-9.976-11.627C317.238,439.634,311.344,440.375,311.344,440.375z"/>
		<path fill="#A1CBB1" d="M337.26,437.87c0,0,1.479,9.424,8.527,9.589c0.164,0.165,10.817-2.004,10.817-2.004
			s-16.529-7.804-11.468-8.038C345.611,437.394,337.26,437.87,337.26,437.87z"/>
		<path fill="#E9E7E4" d="M259.164,486.578c0,0-5.617-12.996,2.466-16.14c4.425-1.721-0.727-11.076,6.2-9.337
			c0.541,0.61,2.941-4.063,6.092-10.577c3.688-7.621,13.171-5.799,22.371-3.195c0.557,0.629,11.105-8.631,14.996-3.441
			c5.9,7.867,13.521-9.588,20.65-2.459c5.163-9.097,16.798-0.449,18.684,0c5.163,1.229,13.667-6.661,18.684-0.983
			c0.897,1.014,10.079-6.11,16.472,0.983c4.267,4.736,10.325-7.094,12.957,0.664c1.721,5.072,13.594,0.564,13.594,8.678
			c2.23-1.262,13.575,8.112,4.425,16.226c0,2.249,7.817,9.54,2.95,20.896c-0.177-0.555,4.026,5.605,1.482,12.195
			c-2.773,7.182,7.849,11.188,1.468,14.602c-2.753,1.473,3.718,10.309,0.737,12.293c-0.261-0.508-3.914,4.386,0.745,8.138
			c5.316,4.278-3.352,13.096-0.327,15.618c5.11,4.26-2.131,17.885-4.597,18.283c0,0.463-0.123,4.424-0.737,7.374
			c-0.209,1.007-4.987,11.08-7.376,11.31c-4.871,0.463-9.956,5.162-15.365,2.457c-0.614,0.697-6.649,1.99-14.872-0.492
			c-6.71-2.023-15.488,6.27-20.528,1.354c0-0.576-11.923,2.9-14.873-0.369c-3.602-3.992-6.221-3.09-9.029,0.282
			c-1.6,1.921-3.227-3.858-7.072,0.21c-6.27,3.072-4.957-2.701-8.444-1.839c-3.487,0.863-8.724,5.917-13.313,1.593
			c-3.617-3.41-8.481-1.844-9.833-1.107c-1.062,0.581-5.163,3.074-9.675-4.165c-1.116,2.524-14.418,3.182-17.613-4.562
			c0,0-0.85,0.025-3.051-6.619c-0.76-2.296,1.939-7.82-1.498-8.131c-7.209-0.657-5.776-11.309-5.776-11.309
			c0.32-3.991,2.98-7.846,1.725-9.076c-4.04-3.945,1.091-7.748,1.091-7.748c-10.608-17.996,2.754-11.641-0.623-14.087
			c-8.596-6.227-1.07-10.981-1.07-10.981c-5.574-3.607-3.024-10.93-0.055-13.027C262.336,500.087,252.041,490.352,259.164,486.578z"
			/>
		<path fill="#A1CBB1" d="M369.376,490.394c0,0,21.035,51.13,13.451,56.104c-0.271,0.943-36.909,10.816-44.864,6.465
			c2.834,0.822-11.276-24.707-7.34-27.688C329.408,525.919,369.376,490.394,369.376,490.394z"/>
		<path fill="#EECBB4" d="M365.681,490.292c0,0-43.767,35.176-36.884,35.815c0,0,1.35,18.589,4.426,19.599
			c-0.628,0.182,0.751,17.707-10.69,5.004c-0.019,0.728-17.165-16.857-15.884-18.286c-0.04,1.448,6.807-16.981,1.901-19.132
			c0.017-0.555-3.751-22.826,3.212-24.82C312.48,487.763,367.463,470.667,365.681,490.292z"/>
		<path fill="#84A991" d="M362.037,496.925l7.339-6.531c0,0,20.253,53.867,13.451,56.104L362.037,496.925z"/>
		<path fill="#A1CBB1" d="M299.902,437.417c0,0,10.494-0.431,5.411,6.943c-0.327,0.329-2.011,1.095-2.011,1.095
			S308.094,440.468,299.902,437.417z"/>
		<path fill="#A1CBB1" d="M268.766,458.852c0,0,9.184-7.489,8.361-9.24c0.161-0.11-3.937,7.428-4.92,7.757
			C272.043,457.53,268.766,458.852,268.766,458.852z"/>
		<path fill="#BADFC4" d="M428.798,525.757c0,0,6.151,5.367,4.364,15.82c0,0.164-6.719,7.54-1.476,10.162
			c-0.312,0.301,2.925,2.213,1.147,3.586c-0.164,0.184,0.819,2.804-1.147,3.133c0,0,4.005,1.383-0.169,3.115
			c0.004,0.326,1.514,1.593,0,2.785c-0.16,0-6.638-4.099-2.006,6.393c-0.484-0.119-0.983,10.46-6.861,8.098
			c-0.137,0.264-2.749,14.023-6.035,8.125c0.077-0.074,12.373-26.482,10.646-29.875C427.173,557.31,426.88,525.493,428.798,525.757z
			"/>
		<path fill="#A1CBB1" d="M416.971,579.78c0,0,3.525-7.577,2.242-10.76c0,0,6.3-5.405,5.213-7.9
			c-0.053,0.146,0.422,8.468-1.434,12.09C422.774,572.886,417.654,580.286,416.971,579.78z"/>
		<path fill="#F1DACD" d="M311.271,497.433c0,0,49.062-16.344,49.765-13.812c-0.003-0.672-4.764,10.678-4.764,10.678
			L311.271,497.433z"/>
		<path fill="#F1DACD" d="M314.879,512.958c0,0,29.588-16.133,28.544-13.384c1.726-0.335,2.813,3.032-1.237,7.113
			C342.12,508.503,314.879,512.958,314.879,512.958z"/>
	</g>
	<g>
		<path fill="#363A38" stroke="#383133" stroke-miterlimit="10" d="M438.973,321.007c0,23.639-7.764,51.139-25.739,66.24
			c-16.837,14.144-43.057,16.653-68.132,16.653c-28.433,0-53.915-11.163-71.129-28.798c-14.171-14.52-22.74-33.424-22.74-54.096
			c0-25.073,8.089-53.31,28.01-68.509c16.452-12.553,42.41-14.384,65.859-14.384c28.644,0,59.998,4.093,77.216,21.954
			C436.263,274.534,438.973,300.522,438.973,321.007z"/>
		<path fill="#E9E7E4" d="M268.138,282.023c0,0-1.682-9.692,4.543-12.113c3.405-1.325,3.489-8.607,8.82-7.268
			c0.416,0.47,2.263-3.129,4.69-8.142c2.84-5.867,10.14-4.464,17.223-2.46c0.428,0.484,8.546-6.644,11.544-2.649
			c4.541,6.056,10.408-7.381,15.897-1.893c3.975-7.002,12.932-0.346,14.385,0c3.974,0.946,10.52-5.128,14.382-0.757
			c0.688,0.78,7.76-4.705,12.681,0.757c3.285,3.646,7.947-5.461,9.973,0.512c1.952,5.752,13.295-0.107,13.295,4.236
			c1.719-0.971,27.482,7.128,20.441,13.374c0,1.731,15.354,6.397,11.606,15.14c1.083,0.079,6.753,8.302,4.794,13.375
			c-2.133,5.528,5.92,9.991,1.009,12.618c-2.118,1.133,3.477,8.313,1.183,9.841c-0.201-0.39-5.274,3.421-1.686,6.307
			c4.092,3.295-0.853,5.125,1.475,7.066c0.26,0.217-2.47,6.46-0.212,11.354c1.612,3.502-6.533,6.794-4.796,11.104
			c1.209,2.992-4.997,6.748-4.036,9.589c2.06,6.095-7.688,10.438-8.579,12.622c-1.439,3.514-6.671,4.873-8.58,9.084
			c-2.102,4.633-6.058,4.289-10.094,5.551c-3.856,1.205-4.234-0.655-5.806,2.523c-1.276,2.582-9.572,0.498-10.597,2.524
			c-1.974,3.906-7.181-0.63-7.57,0c-2.884,4.668-7.668,2.708-8.076,2.774c0,0.358-7.099-1.767-7.57,0.505
			c-0.163,0.774-6.49,0.855-8.328,1.032c-3.75,0.357-8.201,0.717-12.364-1.365c-0.799,2.797-0.988,0.732-7.318-1.178
			c-5.165-1.559-4.194,3.529-8.075-0.256c0-0.443-6.308,0.246-8.579-2.271c-2.774-3.072-7.681-6.886-9.841-4.29
			c-1.231,1.479-3.6-7.172-6.562-4.041c-4.827,2.366-1.605-3.691-4.289-3.027c-2.687,0.664-2.021,0.301-5.552-3.028
			c-2.785-2.624-2.996-7.634-4.037-7.065c-0.818,0.446-2.836-0.988-6.31-6.561c-0.858,1.943-5.139-3.855-7.6-9.818
			c0,0-3.828-4.246-5.522-9.359c-0.584-1.77-0.635-7.331-3.278-7.57c-5.552-0.507-3.534-7.822-3.534-7.822
			c0.246-3.072-0.294-6.119-1.262-7.066c-3.109-3.038,1.188-5.931,1.188-5.931c-8.165-13.855,5.023-12.878,2.424-14.76
			c-6.618-4.795,2.412-3.533,2.412-3.533c-4.29-2.776-2.001-6.711,0.284-8.327C263.191,291.36,262.655,284.927,268.138,282.023z"/>
		<path fill="#F7F5F2" d="M291.188,304.208c0,0,31.595,37.75,37.104,34.634c-0.412-0.489,30.139-20.71,29.032-31.244
			c-0.406-0.97-12.536-49.885-34.948-40.302C315.67,269.976,282.78,294.521,291.188,304.208z"/>
		<path fill="#C3EAD0" d="M328.737,344.794l-25.87,5.618c0,0-21.158-12.46-22.739-26.047c1.333-0.169,14.323-12.504,14.323-12.504
			L328.737,344.794z"/>
		<path fill="#B78F9D" d="M358.611,307.863c0,0-11.931-24.806-7.955-26.309c3.978-1.502,29.168-4.51,29.168-4.51
			s5.964,10.522,3.977,15.409C381.811,297.339,357.287,314.627,358.611,307.863z"/>
		<path fill="#A1CBB1" d="M355.307,319.457c0,0,35.943-34.108,40.583-29.997c4.64,4.11,24.524,37.937,24.524,37.937
			s-29.164-3.759-28.502,0C392.574,331.154,355.307,319.457,355.307,319.457z"/>
		<path fill="#EECBB4" d="M318.115,359.392c0,0,17.318-30.912,38.859-41.013c8.284,4.181,13.386,9.441,13.386,9.441
			s5.764,27.061,0,31.572C369.899,359.392,318.889,382.515,318.115,359.392z"/>
		<path fill="#DDD197" d="M374.861,362.726c0,0-6.359-33.116,0-34.585c6.359-1.471,31.152,0,31.152,0s5.303,31.579,3.313,34.585
			C407.34,365.731,375.476,366.211,374.861,362.726z"/>
		<path fill="#F1DACD" d="M362.047,322.403c0,0-13.812-4.9-31.34,28.287c0.027,0.035,11.457-20.274,30.772-25.52
			C361.5,325.065,362.047,322.403,362.047,322.403z"/>
		<path fill="#F1DACD" d="M359.745,330.627c0,0-13.114-5.453-27.555,25.274c0.03,0.034,9.52-18.729,27.183-22.66
			C359.387,333.142,359.745,330.627,359.745,330.627z"/>
		<path fill="#84A991" d="M356.93,318.023c0,0,32.656-32.052,39.626-28.657l3.857,5.897
			C400.413,295.263,365.173,310.323,356.93,318.023z"/>
		<path fill="#BA9BA5" d="M377.204,298.297c0,0,9.156-2.094,2.62-21.253c-0.031-0.005,3.616,11.931-3.614,19.923
			C376.248,297.018,377.204,298.297,377.204,298.297z"/>
		<path fill="#EECBB4" d="M333.051,267.208c0,0-11.081-4.656-20.346,5.871c-7.761,6.171-32.537,25.773-18.819,34.818
			c7.159,8.112,29.253,29.43,29.253,29.43h1.969l-26.672-28.7c0,0-17.695-5.941,5.545-24.193
			C303.853,284.435,320.574,263.317,333.051,267.208z"/>
		<path fill="#AFE2BD" d="M280.128,325.296c0,0,11.674-15.366,14.797-13.656l1.975,2.904
			C296.899,314.544,283.098,321.607,280.128,325.296z"/>
	</g>
</g>
</svg>
